<svg width="18" height="18" viewBox="0 0 18 18" fill="none" xmlns="http://www.w3.org/2000/svg">
<g clip-path="url(#clip0_21_17)">
<mask id="mask0_21_17" style="mask-type:luminance" maskUnits="userSpaceOnUse" x="0" y="0" width="18" height="18">
<path d="M0 0H18V18H0V0Z" fill="white"/>
</mask>
<g mask="url(#mask0_21_17)">
<path fill-rule="evenodd" clip-rule="evenodd" d="M9 0C4.0275 0 0 4.0275 0 9C0 12.9825 2.57625 16.3463 6.15375 17.5388C6.60375 17.6175 6.7725 17.3475 6.7725 17.1113C6.7725 16.8975 6.76125 16.1888 6.76125 15.435C4.5 15.8513 3.915 14.8838 3.735 14.3775C3.63375 14.1188 3.195 13.32 2.8125 13.1063C2.4975 12.9375 2.0475 12.5213 2.80125 12.51C3.51 12.4988 4.01625 13.1625 4.185 13.4325C4.995 14.7938 6.28875 14.4113 6.80625 14.175C6.885 13.59 7.12125 13.1963 7.38 12.9713C5.3775 12.7463 3.285 11.97 3.285 8.5275C3.285 7.54875 3.63375 6.73875 4.2075 6.10875C4.1175 5.88375 3.8025 4.96125 4.2975 3.72375C4.2975 3.72375 5.05125 3.4875 6.7725 4.64625C7.4925 4.44375 8.2575 4.3425 9.0225 4.3425C9.7875 4.3425 10.5525 4.44375 11.2725 4.64625C12.9937 3.47625 13.7475 3.72375 13.7475 3.72375C14.2425 4.96125 13.9275 5.88375 13.8375 6.10875C14.4113 6.73875 14.76 7.5375 14.76 8.5275C14.76 11.9813 12.6562 12.7463 10.6537 12.9713C10.98 13.2525 11.2613 13.7925 11.2613 14.6363C11.2613 15.84 11.25 16.8075 11.25 17.1113C11.25 17.3475 11.4187 17.6288 11.8687 17.5388C13.6554 16.9355 15.2079 15.7873 16.3077 14.2555C17.4076 12.7238 17.9995 10.8857 18 9C18 4.0275 13.9725 0 9 0Z" fill="white"/>
</g>
</g>
<defs>
<clipPath id="clip0_21_17">
<rect width="18" height="18" fill="white"/>
</clipPath>
</defs>
</svg>
