<svg width="15" height="15" viewBox="0 0 15 15" fill="none" xmlns="http://www.w3.org/2000/svg">
<path d="M6.79166 3.95841H8.20832V5.37508H6.79166V3.95841ZM6.79166 6.79175H8.20832V11.0417H6.79166V6.79175ZM7.49999 0.416748C3.58999 0.416748 0.416656 3.59008 0.416656 7.50008C0.416656 11.4101 3.58999 14.5834 7.49999 14.5834C11.41 14.5834 14.5833 11.4101 14.5833 7.50008C14.5833 3.59008 11.41 0.416748 7.49999 0.416748ZM7.49999 13.1667C4.37624 13.1667 1.83332 10.6238 1.83332 7.50008C1.83332 4.37633 4.37624 1.83341 7.49999 1.83341C10.6237 1.83341 13.1667 4.37633 13.1667 7.50008C13.1667 10.6238 10.6237 13.1667 7.49999 13.1667Z" fill="black"/>
</svg>
