<svg width="21" height="18" viewBox="0 0 21 18" fill="none" xmlns="http://www.w3.org/2000/svg">
<path d="M12 0C9.61305 0 7.32387 0.948211 5.63604 2.63604C3.94821 4.32387 3 6.61305 3 9H0L4 13L8 9H5C5 5.14 8.14 2 12 2C15.86 2 19 5.14 19 9C19 12.86 15.86 16 12 16C10.1 16 8.38 15.24 7.12 14.01L5.7 15.42C7.3801 17.0734 9.64281 18 12 18C14.3869 18 16.6761 17.0518 18.364 15.364C20.0518 13.6761 21 11.3869 21 9C21 6.61305 20.0518 4.32387 18.364 2.63604C16.6761 0.948211 14.3869 3.55683e-08 12 0ZM14 8V7C14 5.9 13.1 5 12 5C10.9 5 10 5.9 10 7V8C9.45 8 9 8.45 9 9V12C9 12.55 9.45 13 10 13H14C14.55 13 15 12.55 15 12V9C15 8.45 14.55 8 14 8ZM13 8H11V7C11 6.45 11.45 6 12 6C12.55 6 13 6.45 13 7V8Z" fill="red"/>
</svg>
