<svg width="217" height="68" viewBox="0 0 217 68" fill="none" xmlns="http://www.w3.org/2000/svg">
<path d="M6.76 0H209.41C213.14 0 216.17 3.01999 216.17 6.75999V60.8C216.17 64.53 213.15 67.56 209.41 67.56H6.76C3.03 67.56 0 64.54 0 60.8V6.75999C0.01 3.01999 3.03 0 6.76 0Z" fill="black"/>
<path fill-rule="evenodd" clip-rule="evenodd" d="M42.48 11.48C42.84 13.94 41.84 16.35 40.52 18.06C39.11 19.89 36.67 21.31 34.31 21.23C33.88 18.87 34.98 16.44 36.33 14.81C37.79 13.01 40.32 11.63 42.48 11.48ZM49.57 46.13C50.79 44.26 51.24 43.32 52.19 41.22C45.32 38.61 44.21 28.83 51.02 25.08C48.94 22.48 46.03 20.97 43.28 20.97C41.3 20.97 39.94 21.49 38.7 21.96C37.67 22.35 36.73 22.71 35.58 22.71C34.34 22.71 33.24 22.32 32.09 21.9C30.83 21.45 29.5 20.97 27.85 20.97C24.76 20.97 21.47 22.86 19.39 26.08C16.46 30.62 16.96 39.17 21.71 46.45C23.41 49.05 25.68 51.98 28.65 52.01C29.88 52.02 30.7 51.65 31.59 51.26C32.61 50.8 33.71 50.31 35.62 50.3C37.54 50.29 38.63 50.79 39.63 51.25C40.49 51.65 41.3 52.02 42.52 52C45.48 51.98 47.87 48.74 49.57 46.13Z" fill="white"/>
<path d="M69.12 14.19V22.29H71.98C74.62 22.29 75.58 20.57 75.58 18.22C75.58 15.85 74.59 14.18 71.98 14.18H69.12V14.19ZM70.56 15.39H71.81C73.54 15.39 74.11 16.57 74.11 18.25C74.11 20.25 73.32 21.09 71.81 21.09H70.56V15.39ZM79.05 17.72C79.05 16.08 79.88 15.24 81 15.24C82.13 15.24 82.95 16.08 82.95 17.72V18.82C82.95 20.46 82.13 21.24 81 21.24C79.88 21.24 79.05 20.46 79.05 18.82V17.72ZM77.6 18.81C77.6 21.1 78.89 22.45 81 22.45C83.11 22.45 84.41 21.1 84.41 18.81V17.73C84.41 15.43 83.12 14.03 81.01 14.03C78.91 14.03 77.6 15.43 77.6 17.73V18.81ZM89.49 22.29L91.05 16.45H91.1L92.66 22.29H93.97L96.14 14.19H94.6L93.26 20.14H93.2L91.72 14.19H90.43L88.95 20.14H88.9L87.55 14.19H86.01L88.17 22.29H89.49ZM99.42 22.29V16.6H99.46L103.22 22.29H104.45V14.19H103.11V19.86H103.06L99.31 14.19H98.07V22.29H99.42ZM112.17 21.06H108.64V14.19H107.2V22.29H112.16V21.06H112.17ZM115.21 17.72C115.21 16.08 116.04 15.24 117.16 15.24C118.29 15.24 119.11 16.08 119.11 17.72V18.82C119.11 20.46 118.29 21.24 117.16 21.24C116.04 21.24 115.21 20.46 115.21 18.82V17.72ZM113.75 18.81C113.75 21.1 115.04 22.45 117.15 22.45C119.26 22.45 120.56 21.1 120.56 18.81V17.73C120.56 15.43 119.27 14.03 117.16 14.03C115.06 14.03 113.75 15.43 113.75 17.73V18.81ZM123.52 22.29L124.21 20.11H127.01L127.7 22.29H129.24L126.48 14.19H124.85L122.08 22.29H123.52ZM125.64 15.64L126.7 19.01H124.53L125.59 15.64H125.64ZM131.21 14.19V22.29H134.07C136.71 22.29 137.67 20.57 137.67 18.22C137.67 15.85 136.68 14.18 134.07 14.18H131.21V14.19ZM132.64 15.39H133.89C135.62 15.39 136.19 16.57 136.19 18.25C136.19 20.25 135.4 21.09 133.89 21.09H132.64V15.39ZM144.52 17.72C144.52 16.08 145.35 15.24 146.47 15.24C147.6 15.24 148.42 16.08 148.42 17.72V18.82C148.42 20.46 147.6 21.24 146.47 21.24C145.35 21.24 144.52 20.46 144.52 18.82V17.72ZM143.07 18.81C143.07 21.1 144.36 22.45 146.47 22.45C148.58 22.45 149.88 21.1 149.88 18.81V17.73C149.88 15.43 148.59 14.03 146.48 14.03C144.38 14.03 143.07 15.43 143.07 17.73V18.81ZM153.66 22.29V16.6H153.7L157.46 22.29H158.69V14.19H157.35V19.86H157.3L153.55 14.19H152.31V22.29H153.66ZM167.83 22.29V15.4H170.19V14.18H164.05V15.4H166.4V22.29H167.83ZM178.64 22.29V14.19H177.2V17.53H173.59V14.19H172.15V22.29H173.59V18.74H177.2V22.29H178.64ZM186.51 21.09H182.82V18.74H186.29V17.61H182.82V15.38H186.51V14.18H181.39V22.28H186.51V21.09Z" fill="white"/>
<path d="M66.46 52.0101L73.53 31.3001H77.7L84.76 52.0101H80.83L79.07 46.4301H71.92L70.16 52.0101H66.46ZM72.73 43.6401H78.28L75.58 35.0201H75.44L72.73 43.6401ZM87.02 57.4301V35.9501H90.52V38.2701H90.66C90.99 37.5001 91.57 36.8901 92.39 36.4301C93.21 35.9601 94.22 35.7301 95.42 35.7301C97.25 35.7301 98.71 36.3701 99.8 37.6601C100.9 38.9401 101.45 40.7301 101.45 43.0301V44.9601C101.45 47.2601 100.9 49.0401 99.8 50.3201C98.71 51.5901 97.23 52.2301 95.35 52.2301C94.18 52.2301 93.21 52.0001 92.44 51.5501C91.67 51.0901 91.1 50.5001 90.74 49.7601H90.59V57.4401H87.02V57.4301ZM90.6 44.7601C90.6 46.0901 90.93 47.1801 91.59 48.0401C92.26 48.8901 93.15 49.3101 94.28 49.3101C95.35 49.3101 96.21 48.9201 96.84 48.1301C97.49 47.3301 97.81 46.1701 97.81 44.6601V43.3101C97.81 41.8101 97.49 40.6601 96.85 39.8701C96.21 39.0601 95.33 38.6601 94.21 38.6601C93.1 38.6601 92.22 39.0701 91.57 39.8901C90.92 40.7001 90.6 41.7801 90.6 43.1401V44.7601ZM104.61 57.4301V35.9501H108.11V38.2701H108.25C108.58 37.5001 109.16 36.8901 109.98 36.4301C110.8 35.9601 111.81 35.7301 113.01 35.7301C114.84 35.7301 116.3 36.3701 117.39 37.6601C118.49 38.9401 119.04 40.7301 119.04 43.0301V44.9601C119.04 47.2601 118.49 49.0401 117.39 50.3201C116.3 51.5901 114.82 52.2301 112.94 52.2301C111.77 52.2301 110.8 52.0001 110.03 51.5501C109.26 51.0901 108.69 50.5001 108.33 49.7601H108.18V57.4401H104.61V57.4301ZM108.19 44.7601C108.19 46.0901 108.52 47.1801 109.18 48.0401C109.85 48.8901 110.74 49.3101 111.87 49.3101C112.94 49.3101 113.8 48.9201 114.43 48.1301C115.08 47.3301 115.4 46.1701 115.4 44.6601V43.3101C115.4 41.8101 115.08 40.6601 114.44 39.8701C113.8 39.0601 112.92 38.6601 111.8 38.6601C110.69 38.6601 109.81 39.0701 109.16 39.8901C108.51 40.7001 108.19 41.7801 108.19 43.1401V44.7601ZM126.87 46.2201H130.44C130.52 47.1401 130.96 47.9101 131.74 48.5301C132.53 49.1401 133.61 49.4401 134.97 49.4401C136.27 49.4401 137.28 49.1601 138 48.6101C138.74 48.0501 139.11 47.3001 139.11 46.3501C139.11 45.6001 138.85 45.0001 138.32 44.5601C137.8 44.1101 136.99 43.7601 135.86 43.4801L132.54 42.6801C131.82 42.5201 131.16 42.3001 130.57 42.0101C129.98 41.7201 129.44 41.3501 128.95 40.9201C128.46 40.4701 128.09 39.9201 127.81 39.2701C127.54 38.6101 127.4 37.8701 127.4 37.0501C127.4 35.7701 127.75 34.6501 128.45 33.7001C129.15 32.7401 130.06 32.0301 131.2 31.5601C132.33 31.0901 133.59 30.8601 134.98 30.8601C136.38 30.8601 137.64 31.1001 138.76 31.5701C139.89 32.0501 140.79 32.7501 141.46 33.6901C142.14 34.6201 142.49 35.7001 142.51 36.9401H139.02C138.95 36.0401 138.56 35.3001 137.87 34.7101C137.17 34.1201 136.2 33.8301 134.96 33.8301C133.8 33.8301 132.86 34.0901 132.15 34.6201C131.45 35.1401 131.1 35.8501 131.1 36.7601C131.1 38.1101 132.05 39.0001 133.95 39.4501L137.29 40.2501C138.12 40.4401 138.85 40.6801 139.48 40.9601C140.11 41.2401 140.68 41.6101 141.19 42.0501C141.72 42.5001 142.12 43.0501 142.39 43.7201C142.66 44.3901 142.8 45.1601 142.8 46.0301C142.8 48.0301 142.06 49.6001 140.58 50.7301C139.11 51.8601 137.16 52.4301 134.72 52.4301C133.6 52.4301 132.58 52.3001 131.67 52.0501C130.77 51.8001 130.03 51.4701 129.44 51.0601C128.86 50.6601 128.38 50.1801 127.98 49.6301C127.59 49.0701 127.3 48.5201 127.13 47.9601C126.96 47.4001 126.88 46.8101 126.87 46.2201ZM144.75 38.8901V36.0801H147.05V32.0701H150.54V36.0801H153.66V38.8901H150.54V47.1301C150.54 47.9701 150.72 48.5501 151.07 48.8601C151.43 49.1601 152.07 49.3201 152.97 49.3201C153.36 49.3201 153.63 49.3101 153.76 49.2901V52.0101C153.24 52.0901 152.69 52.1301 152.09 52.1301C150.78 52.1301 149.76 51.9601 149.01 51.6301C148.26 51.3001 147.74 50.8101 147.43 50.1601C147.14 49.5001 146.99 48.6201 146.99 47.5001V38.9001H144.75V38.8901ZM155.74 44.5301V43.3901C155.74 41.8901 156 40.5701 156.51 39.4301C157.04 38.2901 157.85 37.3801 158.95 36.7001C160.05 36.0201 161.39 35.6801 162.96 35.6801C165.31 35.6801 167.09 36.3801 168.32 37.7701C169.55 39.1601 170.17 41.0201 170.17 43.3701V44.5201C170.17 46.9301 169.56 48.8201 168.33 50.2101C167.11 51.5901 165.32 52.2701 162.96 52.2701C160.6 52.2701 158.81 51.5801 157.57 50.2101C156.35 48.8501 155.74 46.9501 155.74 44.5301ZM159.34 44.4401C159.34 45.1301 159.4 45.7501 159.52 46.3201C159.64 46.8901 159.83 47.4101 160.1 47.9001C160.36 48.3801 160.74 48.7501 161.22 49.0201C161.71 49.2901 162.29 49.4301 162.96 49.4301C163.63 49.4301 164.2 49.3001 164.69 49.0401C165.18 48.7701 165.55 48.3901 165.8 47.9001C166.06 47.4101 166.25 46.8901 166.36 46.3201C166.48 45.7501 166.54 45.1301 166.54 44.4401V43.5101C166.54 42.8101 166.48 42.1801 166.36 41.6101C166.25 41.0401 166.06 40.5201 165.8 40.0301C165.54 39.5401 165.16 39.1701 164.68 38.9101C164.2 38.6401 163.63 38.5001 162.97 38.5001C162.31 38.5001 161.72 38.6401 161.23 38.9101C160.74 39.1801 160.37 39.5601 160.11 40.0501C159.85 40.5301 159.66 41.0501 159.53 41.6301C159.41 42.2001 159.35 42.8201 159.35 43.5101V44.4401H159.34ZM173.45 52.0101V35.9601H177.03V38.0401H177.17C177.78 36.4901 179.05 35.7201 180.98 35.7201C181.39 35.7201 181.79 35.7601 182.16 35.8301V38.9701C181.91 38.8901 181.41 38.8501 180.67 38.8501C178.28 38.8501 177.09 40.0901 177.09 42.5801V52.0201H173.45V52.0101ZM183.46 44.7001V43.3501C183.46 41.0001 184.08 39.1401 185.31 37.7701C186.54 36.3801 188.25 35.6901 190.42 35.6901C192.63 35.6901 194.34 36.3801 195.55 37.7701C196.76 39.1601 197.37 41.0101 197.37 43.3401V44.7801H186.99V45.2801C186.99 46.4601 187.3 47.4501 187.93 48.2501C188.56 49.0501 189.45 49.4501 190.62 49.4501C191.54 49.4501 192.26 49.2501 192.77 48.8401C193.3 48.4401 193.62 47.9201 193.74 47.3101H197.2C197.15 47.7701 197.03 48.2201 196.85 48.6601C196.68 49.1101 196.42 49.5501 196.08 50.0001C195.74 50.4501 195.32 50.8301 194.84 51.1701C194.36 51.5001 193.76 51.7801 193.03 51.9901C192.3 52.1901 191.5 52.2901 190.63 52.2901C188.34 52.2901 186.57 51.6201 185.32 50.2701C184.08 48.9101 183.46 47.0601 183.46 44.7001ZM187 42.3601H193.89V42.3301C193.89 41.1801 193.58 40.2401 192.96 39.5201C192.34 38.8001 191.51 38.4401 190.46 38.4401C189.4 38.4401 188.55 38.8001 187.93 39.5301C187.31 40.2501 187 41.1801 187 42.3201V42.3601Z" fill="white"/>
</svg>
