<svg width="217" height="68" viewBox="0 0 217 68" fill="none" xmlns="http://www.w3.org/2000/svg">
<path d="M6.76001 0H209.41C213.14 0 216.17 3.02999 216.17 6.75999V60.8C216.17 64.53 213.14 67.56 209.41 67.56H6.76001C3.03001 67.56 0 64.53 0 60.8V6.75999C0 3.02999 3.03001 0 6.76001 0Z" fill="black"/>
<path d="M77.17 46.9899C75.51 46.9899 74.12 46.4199 73 45.2999C71.88 44.1799 71.31 42.7699 71.31 41.0799C71.31 39.3999 71.88 37.9999 73 36.8599C74.12 35.7399 75.51 35.1699 77.17 35.1699C78.87 35.1699 80.25 35.7899 81.32 37.0199L80.31 37.9899C79.54 37.0299 78.5 36.5599 77.18 36.5599C75.95 36.5599 74.91 36.9799 74.07 37.7999C73.22 38.6199 72.8 39.7199 72.8 41.0699C72.8 42.4199 73.22 43.4999 74.07 44.3399C74.92 45.1599 75.95 45.5799 77.18 45.5799C78.53 45.5799 79.69 45.0399 80.65 43.9499L81.66 44.9599C81.15 45.5799 80.5 46.0699 79.71 46.4299C78.93 46.7999 78.09 46.9899 77.17 46.9899Z" fill="white"/>
<path d="M84.4 35.4399V39.0099L84.33 40.0799H84.4C84.62 39.7199 84.94 39.3999 85.4 39.1499C85.85 38.8899 86.33 38.7599 86.85 38.7599C87.81 38.7599 88.54 39.0599 89.04 39.6399C89.54 40.2299 89.8 41.0199 89.8 41.9999V46.7299H88.35V42.2199C88.35 40.7899 87.72 40.0699 86.45 40.0699C85.86 40.0699 85.36 40.3099 84.98 40.7899C84.6 41.2599 84.41 41.8199 84.41 42.4499V46.7199H82.96V35.4299H84.41V35.4399H84.4Z" fill="white"/>
<path d="M92.94 46.73H91.49V39.0001H92.88V40.26H92.95C93.1 39.84 93.4 39.4901 93.86 39.2201C94.32 38.9501 94.77 38.8101 95.2 38.8101C95.63 38.8101 96 38.8801 96.29 39.0001L95.74 40.3501C95.55 40.2801 95.29 40.2401 94.97 40.2401C94.44 40.2401 93.98 40.44 93.58 40.86C93.17 41.28 92.97 41.8201 92.97 42.4901V46.7201H92.94V46.73Z" fill="white"/>
<path d="M97.43 39.92C98.17 39.14 99.13 38.74 100.28 38.74C101.43 38.74 102.39 39.13 103.13 39.92C103.87 40.7 104.25 41.69 104.25 42.87C104.25 44.05 103.87 45.03 103.13 45.82C102.39 46.6 101.43 47 100.28 47C99.13 47 98.17 46.61 97.43 45.82C96.69 45.04 96.31 44.05 96.31 42.87C96.3 41.69 96.67 40.71 97.43 39.92ZM98.51 44.9C99.01 45.41 99.6 45.67 100.28 45.67C100.96 45.67 101.55 45.41 102.05 44.9C102.55 44.39 102.79 43.71 102.79 42.87C102.79 42.03 102.55 41.36 102.05 40.84C101.55 40.33 100.96 40.07 100.28 40.07C99.6 40.07 99.01 40.33 98.51 40.84C98.01 41.35 97.77 42.03 97.77 42.87C97.75 43.71 98.01 44.38 98.51 44.9Z" fill="white"/>
<path d="M105.41 46.73V39H106.8V40.07H106.87C107.09 39.71 107.42 39.39 107.88 39.14C108.34 38.88 108.79 38.75 109.24 38.75C110.44 38.75 111.25 39.25 111.69 40.24C112.32 39.25 113.22 38.75 114.39 38.75C115.31 38.75 116 39.05 116.46 39.63C116.92 40.21 117.15 41.01 117.15 42.01V46.74H115.7V42.23C115.7 41.45 115.55 40.91 115.27 40.57C114.99 40.25 114.55 40.08 113.97 40.08C113.4 40.08 112.93 40.32 112.56 40.81C112.18 41.3 112.01 41.85 112.01 42.47V46.74H110.56V42.23C110.56 41.45 110.41 40.91 110.13 40.57C109.85 40.25 109.41 40.08 108.83 40.08C108.26 40.08 107.79 40.32 107.42 40.81C107.04 41.3 106.87 41.85 106.87 42.47V46.74H105.41V46.73Z" fill="white"/>
<path d="M122.35 46.99C121.19 46.99 120.23 46.6 119.5 45.83C118.77 45.05 118.41 44.07 118.41 42.88C118.41 41.76 118.76 40.79 119.48 39.98C120.2 39.17 121.1 38.76 122.2 38.76C123.35 38.76 124.27 39.14 124.96 39.88C125.65 40.62 125.99 41.62 125.99 42.88L125.98 43.15H119.87C119.91 43.93 120.17 44.54 120.65 45C121.12 45.45 121.69 45.68 122.33 45.68C123.37 45.68 124.07 45.23 124.44 44.36L125.74 44.9C125.48 45.49 125.08 46.01 124.5 46.4C123.89 46.79 123.19 46.99 122.35 46.99ZM124.43 41.94C124.4 41.49 124.2 41.08 123.82 40.68C123.44 40.27 122.89 40.09 122.16 40.09C121.62 40.09 121.16 40.25 120.77 40.59C120.38 40.93 120.11 41.37 119.96 41.94H124.43Z" fill="white"/>
<path d="M143.54 35.4399L140.53 46.7299H139.04L136.61 39.2899H136.54L134.11 46.7299H132.62L129.49 35.4399H131L133.38 44.3199H133.45L135.9 36.9599H137.25L139.7 44.3199H139.77L142.03 35.4399H143.54Z" fill="white"/>
<path d="M147.31 46.99C146.15 46.99 145.19 46.6 144.46 45.83C143.73 45.05 143.37 44.07 143.37 42.88C143.37 41.76 143.72 40.79 144.44 39.98C145.16 39.17 146.06 38.76 147.16 38.76C148.31 38.76 149.23 39.14 149.92 39.88C150.61 40.62 150.95 41.62 150.95 42.88L150.94 43.15H144.83C144.87 43.93 145.13 44.54 145.61 45C146.08 45.45 146.65 45.68 147.29 45.68C148.33 45.68 149.03 45.23 149.4 44.36L150.7 44.9C150.44 45.49 150.04 46.01 149.46 46.4C148.86 46.79 148.14 46.99 147.31 46.99ZM149.39 41.94C149.36 41.49 149.16 41.08 148.78 40.68C148.4 40.27 147.85 40.09 147.12 40.09C146.58 40.09 146.12 40.25 145.73 40.59C145.34 40.93 145.07 41.37 144.92 41.94H149.39Z" fill="white"/>
<path d="M156.34 46.9899C155.75 46.9899 155.22 46.8699 154.76 46.6099C154.29 46.3499 153.95 46.0399 153.71 45.6599H153.64V46.7299H152.25V35.4399H153.7V39.0099L153.63 40.0799H153.7C153.93 39.6999 154.28 39.3899 154.75 39.1299C155.22 38.8699 155.75 38.7499 156.33 38.7499C157.33 38.7499 158.19 39.1399 158.91 39.9399C159.64 40.7199 160 41.7099 160 42.8699C160 44.0299 159.64 45.0199 158.91 45.7999C158.21 46.5999 157.34 46.9899 156.34 46.9899ZM156.1 45.6699C156.78 45.6699 157.36 45.4099 157.83 44.8999C158.32 44.3899 158.56 43.7099 158.56 42.8699C158.56 42.0299 158.32 41.3599 157.83 40.8399C157.34 40.3299 156.76 40.0699 156.1 40.0699C155.41 40.0699 154.83 40.3299 154.36 40.8299C153.89 41.3299 153.64 42.0199 153.64 42.8699C153.64 43.7199 153.88 44.3999 154.36 44.9099C154.84 45.4099 155.42 45.6699 156.1 45.6699Z" fill="white"/>
<path d="M167.77 46.9899C166.95 46.9899 166.15 46.7199 165.37 46.1799C164.59 45.6399 164.07 44.8999 163.83 43.9199L165.15 43.3799C165.31 43.9999 165.64 44.5299 166.12 44.9499C166.61 45.3799 167.16 45.5799 167.77 45.5799C168.4 45.5799 168.95 45.4199 169.39 45.0799C169.84 44.7399 170.07 44.2999 170.07 43.7299C170.07 43.0999 169.84 42.6099 169.39 42.2699C168.94 41.9299 168.24 41.6099 167.27 41.3099C166.27 40.9999 165.51 40.5899 165 40.0899C164.49 39.5899 164.23 38.9599 164.23 38.1699C164.23 37.3599 164.55 36.6599 165.19 36.0599C165.83 35.4599 166.66 35.1499 167.7 35.1499C168.66 35.1499 169.43 35.3899 170.04 35.8699C170.63 36.3399 171.03 36.8699 171.2 37.4399L169.88 37.9899C169.79 37.6399 169.56 37.2999 169.18 36.9899C168.8 36.6799 168.33 36.5299 167.73 36.5299C167.18 36.5299 166.7 36.6799 166.3 36.9899C165.91 37.2999 165.71 37.6899 165.71 38.1499C165.71 38.5699 165.89 38.9199 166.25 39.2199C166.61 39.4999 167.14 39.7699 167.84 39.9999C168.39 40.1799 168.87 40.3499 169.23 40.5299C169.61 40.6899 169.99 40.9199 170.36 41.2099C170.74 41.4899 171.04 41.8299 171.22 42.2499C171.41 42.6699 171.52 43.1399 171.52 43.6999C171.52 44.2399 171.41 44.7399 171.18 45.1699C170.95 45.5999 170.65 45.9399 170.27 46.1999C169.89 46.4599 169.5 46.6499 169.07 46.7799C168.67 46.9199 168.22 46.9899 167.77 46.9899Z" fill="white"/>
<path d="M176 46.8499C175.19 46.8499 174.57 46.6299 174.15 46.1999C173.72 45.7699 173.52 45.1599 173.52 44.3799V40.3299H172.17V39.0099H173.52V36.6499H174.97V39.0099H176.86V40.3299H174.97V44.2799C174.97 45.1199 175.32 45.5399 176.01 45.5399C176.27 45.5399 176.5 45.4999 176.67 45.4199L177.17 46.6599C176.85 46.7899 176.46 46.8499 176 46.8499Z" fill="white"/>
<path d="M178.84 39.92C179.58 39.14 180.54 38.74 181.69 38.74C182.85 38.74 183.8 39.13 184.54 39.92C185.28 40.7 185.66 41.69 185.66 42.87C185.66 44.05 185.28 45.03 184.54 45.82C183.8 46.6 182.84 47 181.69 47C180.53 47 179.58 46.61 178.84 45.82C178.1 45.04 177.72 44.05 177.72 42.87C177.72 41.69 178.09 40.71 178.84 39.92ZM179.92 44.9C180.42 45.41 181.01 45.67 181.69 45.67C182.38 45.67 182.96 45.41 183.46 44.9C183.96 44.39 184.2 43.71 184.2 42.87C184.2 42.03 183.94 41.36 183.46 40.84C182.96 40.33 182.37 40.07 181.69 40.07C181 40.07 180.42 40.33 179.92 40.84C179.42 41.35 179.18 42.03 179.18 42.87C179.18 43.71 179.42 44.38 179.92 44.9Z" fill="white"/>
<path d="M188.28 46.73H186.83V39.0001H188.22V40.26H188.29C188.44 39.84 188.74 39.4901 189.2 39.2201C189.66 38.9501 190.11 38.8101 190.54 38.8101C190.97 38.8101 191.34 38.8801 191.63 39.0001L191.08 40.3501C190.89 40.2801 190.63 40.2401 190.31 40.2401C189.78 40.2401 189.32 40.44 188.92 40.86C188.51 41.28 188.31 41.8201 188.31 42.4901V46.7201H188.28V46.73Z" fill="white"/>
<path d="M195.59 46.99C194.43 46.99 193.47 46.6 192.74 45.83C192.01 45.05 191.65 44.07 191.65 42.88C191.65 41.76 192 40.79 192.72 39.98C193.44 39.17 194.34 38.76 195.44 38.76C196.59 38.76 197.51 39.14 198.2 39.88C198.89 40.62 199.23 41.62 199.23 42.88L199.22 43.15H193.11C193.15 43.93 193.41 44.54 193.89 45C194.36 45.45 194.93 45.68 195.57 45.68C196.61 45.68 197.31 45.23 197.68 44.36L198.98 44.9C198.72 45.49 198.32 46.01 197.74 46.4C197.13 46.79 196.43 46.99 195.59 46.99ZM197.67 41.94C197.64 41.49 197.44 41.08 197.06 40.68C196.68 40.27 196.13 40.09 195.4 40.09C194.86 40.09 194.4 40.25 194.01 40.59C193.62 40.93 193.35 41.37 193.2 41.94H197.67Z" fill="white"/>
<path d="M72.15 29.1899L75.74 19.6499H77.13L80.72 29.1899H79.36L78.44 26.6099H74.43L73.49 29.1899H72.15ZM74.85 25.4499H78.02L76.47 21.1499H76.41L74.85 25.4499Z" fill="white"/>
<path d="M82.92 29.1899L80.28 22.6599H81.61L83.53 27.7299H83.56L85.51 22.6599H86.82L84.15 29.1899H82.92Z" fill="white"/>
<path d="M89.54 29.3999C88.85 29.3999 88.27 29.1999 87.8 28.7999C87.33 28.3899 87.11 27.86 87.11 27.22C87.11 26.51 87.38 25.9499 87.94 25.5399C88.5 25.1299 89.18 24.9399 89.98 24.9399C90.7 24.9399 91.29 25.0799 91.75 25.3299V25.1499C91.75 24.6699 91.58 24.29 91.25 24C90.92 23.71 90.51 23.56 90.04 23.56C89.68 23.56 89.36 23.6499 89.07 23.8199C88.78 23.9899 88.59 24.2099 88.48 24.5099L87.36 24.03C87.51 23.64 87.81 23.2799 88.25 22.9399C88.69 22.5999 89.28 22.4399 90.02 22.4399C90.85 22.4399 91.54 22.6799 92.1 23.1799C92.66 23.6599 92.93 24.36 92.93 25.25V29.1899H91.75V28.28H91.69C91.19 29.02 90.48 29.3999 89.54 29.3999ZM89.74 28.28C90.25 28.28 90.71 28.0799 91.11 27.7099C91.52 27.3299 91.73 26.8799 91.73 26.3699C91.38 26.0799 90.87 25.95 90.18 25.95C89.59 25.95 89.14 26.09 88.84 26.34C88.54 26.6 88.39 26.9 88.39 27.25C88.39 27.57 88.53 27.82 88.8 28C89.06 28.18 89.38 28.28 89.74 28.28Z" fill="white"/>
<path d="M95.63 21.01C95.46 21.18 95.25 21.27 95.01 21.27C94.77 21.27 94.57 21.18 94.39 21.01C94.22 20.84 94.13 20.63 94.13 20.39C94.13 20.15 94.22 19.95 94.39 19.77C94.56 19.6 94.77 19.51 95.01 19.51C95.25 19.51 95.45 19.6 95.63 19.77C95.8 19.94 95.89 20.15 95.89 20.39C95.88 20.65 95.79 20.84 95.63 21.01ZM95.63 29.19H94.41V22.66H95.63V29.19Z" fill="white"/>
<path d="M98.45 29.1899H97.23V19.6499H98.45V29.1899Z" fill="white"/>
<path d="M101.95 29.3999C101.26 29.3999 100.68 29.1999 100.21 28.7999C99.74 28.3899 99.52 27.86 99.52 27.22C99.52 26.51 99.79 25.9499 100.35 25.5399C100.91 25.1299 101.59 24.9399 102.39 24.9399C103.11 24.9399 103.7 25.0799 104.16 25.3299V25.1499C104.16 24.6699 103.99 24.29 103.66 24C103.33 23.71 102.92 23.56 102.45 23.56C102.09 23.56 101.77 23.6499 101.48 23.8199C101.19 23.9899 101 24.2099 100.89 24.5099L99.76 24.03C99.91 23.64 100.21 23.2799 100.65 22.9399C101.09 22.5999 101.68 22.4399 102.42 22.4399C103.25 22.4399 103.94 22.6799 104.5 23.1799C105.06 23.6599 105.33 24.36 105.33 25.25V29.1899H104.15V28.28H104.09C103.61 29.02 102.88 29.3999 101.95 29.3999ZM102.14 28.28C102.65 28.28 103.11 28.0799 103.51 27.7099C103.92 27.3299 104.13 26.8799 104.13 26.3699C103.78 26.0799 103.27 25.95 102.58 25.95C101.99 25.95 101.54 26.09 101.24 26.34C100.94 26.6 100.79 26.9 100.79 27.25C100.79 27.57 100.93 27.82 101.2 28C101.48 28.18 101.8 28.28 102.14 28.28Z" fill="white"/>
<path d="M110.16 29.3999C109.66 29.3999 109.21 29.2899 108.82 29.0799C108.43 28.8699 108.13 28.5999 107.93 28.2799H107.87V29.1899H106.71V19.6499H107.93V22.6699L107.87 23.5799H107.93C108.13 23.2599 108.43 22.9899 108.82 22.7799C109.21 22.5699 109.66 22.4599 110.16 22.4599C111.01 22.4599 111.73 22.7899 112.35 23.4599C112.97 24.1199 113.27 24.9499 113.27 25.9299C113.27 26.9099 112.97 27.7399 112.35 28.3999C111.73 29.0699 111 29.3999 110.16 29.3999ZM109.96 28.2799C110.53 28.2799 111.02 28.0699 111.42 27.6299C111.83 27.1899 112.04 26.6299 112.04 25.9099C112.04 25.1999 111.83 24.6299 111.42 24.1999C111.01 23.7599 110.53 23.5499 109.96 23.5499C109.39 23.5499 108.89 23.7599 108.48 24.1799C108.07 24.5999 107.88 25.1799 107.88 25.8999C107.88 26.6199 108.08 27.1999 108.48 27.6199C108.89 28.0699 109.37 28.2799 109.96 28.2799Z" fill="white"/>
<path d="M115.54 29.1899H114.32V19.6499H115.54V29.1899Z" fill="white"/>
<path d="M119.92 29.4C118.94 29.4 118.14 29.07 117.52 28.42C116.9 27.76 116.6 26.93 116.6 25.93C116.6 24.98 116.9 24.16 117.51 23.49C118.11 22.81 118.88 22.46 119.8 22.46C120.77 22.46 121.55 22.78 122.12 23.41C122.69 24.04 123 24.89 123 25.94L122.98 26.17H117.82C117.85 26.83 118.08 27.35 118.48 27.72C118.89 28.1 119.36 28.29 119.9 28.29C120.78 28.29 121.38 27.91 121.68 27.17L122.77 27.62C122.56 28.13 122.21 28.56 121.71 28.89C121.23 29.22 120.63 29.4 119.92 29.4ZM121.69 25.13C121.66 24.75 121.49 24.41 121.18 24.06C120.86 23.73 120.4 23.55 119.78 23.55C119.33 23.55 118.94 23.69 118.6 23.97C118.27 24.26 118.04 24.63 117.92 25.12H121.69V25.13Z" fill="white"/>
<path d="M128.37 21.01C128.2 21.18 127.99 21.27 127.75 21.27C127.51 21.27 127.31 21.18 127.13 21.01C126.95 20.84 126.87 20.63 126.87 20.39C126.87 20.15 126.96 19.95 127.13 19.77C127.3 19.6 127.51 19.51 127.75 19.51C127.99 19.51 128.19 19.6 128.37 19.77C128.54 19.94 128.63 20.15 128.63 20.39C128.63 20.65 128.54 20.84 128.37 21.01ZM128.37 29.19H127.15V22.66H128.37V29.19Z" fill="white"/>
<path d="M131.15 22.6499V23.5599H131.21C131.39 23.2399 131.66 22.9899 132.05 22.7599C132.43 22.5499 132.83 22.4299 133.27 22.4299C134.08 22.4299 134.7 22.6699 135.13 23.1699C135.55 23.6699 135.76 24.3299 135.76 25.1599V29.1599H134.54V25.3399C134.54 24.1299 134 23.5299 132.93 23.5299C132.42 23.5299 132.01 23.7299 131.69 24.1299C131.37 24.5399 131.21 25.0099 131.21 25.5299V29.1399H129.99V22.6099H131.15V22.6499Z" fill="white"/>
<path d="M142.95 29.2899C142.27 29.2899 141.74 29.1099 141.38 28.7499C141.02 28.3899 140.84 27.8699 140.84 27.2099V23.7799H139.69V22.6599H140.84V20.6699H142.06V22.6599H143.66V23.7799H142.06V27.1099C142.06 27.8199 142.35 28.1799 142.94 28.1799C143.17 28.1799 143.35 28.1499 143.5 28.0699L143.92 29.1299C143.67 29.2299 143.34 29.2899 142.95 29.2899Z" fill="white"/>
<path d="M146.13 19.6401V22.6601L146.07 23.5701H146.13C146.31 23.2501 146.58 23.0001 146.97 22.7701C147.35 22.5601 147.75 22.4401 148.19 22.4401C149 22.4401 149.62 22.6801 150.05 23.1801C150.47 23.6801 150.68 24.3401 150.68 25.1701V29.1701H149.46V25.3501C149.46 24.1401 148.92 23.5401 147.85 23.5401C147.34 23.5401 146.93 23.7401 146.61 24.1401C146.29 24.5501 146.13 25.0201 146.13 25.5401V29.1501H144.91V19.6101H146.13V19.6401Z" fill="white"/>
<path d="M155.09 29.4C154.11 29.4 153.31 29.07 152.69 28.42C152.07 27.76 151.77 26.93 151.77 25.93C151.77 24.98 152.07 24.16 152.68 23.49C153.28 22.81 154.05 22.46 154.97 22.46C155.94 22.46 156.72 22.78 157.29 23.41C157.86 24.04 158.17 24.89 158.17 25.94L158.16 26.17H153C153.03 26.83 153.26 27.35 153.66 27.72C154.07 28.1 154.53 28.29 155.08 28.29C155.95 28.29 156.56 27.91 156.86 27.17L157.95 27.62C157.74 28.13 157.39 28.56 156.89 28.89C156.4 29.22 155.8 29.4 155.09 29.4ZM156.84 25.13C156.81 24.75 156.64 24.41 156.33 24.06C156.01 23.73 155.55 23.55 154.93 23.55C154.48 23.55 154.08 23.69 153.75 23.97C153.42 24.26 153.19 24.63 153.07 25.12H156.84V25.13Z" fill="white"/>
<path d="M13.51 13.51V50.87C13.51 52.63 14.96 54.07 16.71 54.07H57.27C59.03 54.07 60.47 52.62 60.47 50.87V13.51H13.51ZM42.33 22.05H31.66C30.48 22.05 29.53 21.09 29.53 19.92C29.53 18.74 30.49 17.79 31.66 17.79H42.33C43.51 17.79 44.46 18.75 44.46 19.92C44.46 21.09 43.51 22.05 42.33 22.05Z" fill="white"/>
<path d="M36.99 41.6401H55.04C51.68 35.0701 44.87 30.5801 36.99 30.5801C29.83 30.5801 23.55 34.3101 19.94 39.9201L28.19 54.0801H28.35C27.97 53.0801 27.76 52.0001 27.76 50.8601C27.78 45.7601 31.9 41.6401 36.99 41.6401Z" fill="#DB4437"/>
<path d="M19.94 39.9099C17.9 43.0699 16.71 46.8299 16.71 50.8499C16.71 51.9399 16.82 53.0099 16.99 54.0699H19.94H28.21L19.94 39.9099Z" fill="#0F9D58"/>
<path d="M55.04 41.6399H36.99C42.08 41.6399 46.2 45.7699 46.2 50.8499C46.2 51.9799 45.98 53.0699 45.61 54.0699H56.99C57.15 53.0199 57.27 51.9499 57.27 50.8499C57.27 47.5299 56.46 44.4099 55.04 41.6399Z" fill="#FFCD40"/>
<path d="M36.99 41.6399C31.9 41.6399 27.78 45.7699 27.78 50.8499C27.78 51.9799 28 53.0699 28.37 54.0699H29.82H30.37C30.29 53.8899 30.21 53.7199 30.13 53.5299C29.81 52.7099 29.62 51.7999 29.62 50.8499C29.62 47.1599 32.34 44.1099 35.88 43.5699C36.24 43.5199 36.62 43.4799 37 43.4799C37.38 43.4799 37.76 43.5199 38.12 43.5699C41.66 44.1099 44.38 47.1599 44.38 50.8499C44.38 51.7999 44.19 52.6999 43.87 53.5299C43.8 53.7199 43.72 53.8899 43.63 54.0699H44.18H45.63C46.01 53.0699 46.22 51.9899 46.22 50.8499C46.21 45.7599 42.09 41.6399 36.99 41.6399Z" fill="#F1F1F1"/>
<path d="M38.11 43.57C37.75 43.52 37.37 43.48 36.99 43.48C36.61 43.48 36.23 43.52 35.87 43.57C32.33 44.11 29.61 47.16 29.61 50.85C29.61 51.8 29.8 52.7 30.12 53.52C30.19 53.71 30.27 53.88 30.36 54.06H43.61C43.69 53.88 43.77 53.71 43.85 53.52C44.17 52.7 44.36 51.79 44.36 50.85C44.37 47.16 41.65 44.11 38.11 43.57Z" fill="#4285F4"/>
<path d="M13.51 13.51H60.47V33.79H13.51V13.51Z" fill="#212121" fill-opacity="0.05"/>
</svg>
