<svg width="422" height="383" viewBox="0 0 422 383" fill="none" xmlns="http://www.w3.org/2000/svg">
<path d="M395.686 158.029C396.473 162.401 396.368 167.151 396.171 171.838C397.171 176.255 398.381 179.869 398.381 188.774C397.408 194.718 396.778 200.784 395.885 206.781C395.398 210.06 394.831 213.318 394.089 216.524C391.71 226.789 386.855 236.252 383.507 246.171C380.336 255.568 374.543 263.53 370.531 272.524C366.517 281.521 360.483 290.508 354.859 298.578C341.961 317.083 325.492 334.207 306.245 346.293C295.762 352.875 284.815 358.641 274.402 365.359C262.144 373.267 250.854 375.241 236.27 375.241C221.402 375.241 206.793 376.139 191.949 376.139C188.21 376.139 175.596 374.421 172.5 372.5C165.917 368.414 154.616 364.982 147 363C133.387 359.457 135.115 354.403 122.074 349.387C118.896 348.165 115.924 346.092 112.891 344.496C110.245 343.103 109.238 340.196 106.402 339.105C101.07 337.055 96.1837 330.917 92.2274 326.728C90.0241 324.395 89.1403 320.945 86.837 318.642C84.648 316.453 82.4457 314.883 80.3486 312.553C79.6737 311.803 77.474 308.79 76.9547 308.76C75.5875 308.679 75.21 309.014 75.1554 310.023C76.3764 311.353 77.4538 312.669 77.4538 313.252C77.4538 314.382 75.203 311.885 75.1579 310.756C75.1468 310.48 75.1439 310.236 75.1554 310.023C73.8274 308.576 72.3296 307.114 71.8637 306.564C69.3062 303.541 66.5757 300.749 64.1775 297.58C60.9772 293.351 58.5924 289.24 56.2915 284.503C53.417 278.585 50.4509 272.822 47.5072 266.934C45.7952 263.51 44.6622 259.927 42.6159 256.653C36.9012 247.509 28.9439 238.616 24.8477 228.603C21.0356 219.284 22.1525 209.004 22.1525 199.155C22.1525 187.186 24.7174 178.268 27.6373 166.913C30.602 155.383 31.3975 142.209 39.8156 131.674C41.1762 129.028 44.1351 125.795 44.3076 122.69C44.453 120.072 45.0739 117.574 46.5037 115.303C49.7101 110.211 52.1716 104.638 55.7871 99.7309C59.2094 95.0863 62.1817 88.0491 64.8691 82.9573C67.8134 77.3786 72.0834 73.1602 75.8495 68.1836C80.7953 61.6481 85.6525 56.5466 89.9261 49.6204C110.5 33.5 115.662 30.3483 128.063 25.5651C135.922 22.5337 143.632 19.0351 151.721 16.7808C159.382 14.6458 167.294 13.6817 175.08 12.0891C189.022 9.23718 203.343 6 217.604 6C235.387 6 251.467 8.0441 268.213 14.4849C284.911 20.9072 302.536 25.1275 317.226 35.8467C331.822 46.4983 348.097 54.2488 359.251 68.8877C373.118 87.0879 382.728 110.85 388.698 133.073C390.626 140.249 393.288 147.287 394.965 154.54C395.233 155.697 395.475 156.859 395.686 158.029Z" fill="white"/>
<path d="M395.885 214.428C395.885 203.115 395.885 191.802 395.885 180.489C395.885 173.271 396.967 165.149 395.686 158.029C394.156 149.528 390.934 141.394 388.698 133.073C382.728 110.85 373.118 87.0879 359.251 68.8877C348.097 54.2488 331.822 46.4983 317.226 35.8467C302.536 25.1275 284.911 20.9072 268.213 14.4849C251.467 8.0441 235.387 6 217.604 6C203.343 6 189.022 9.23718 175.08 12.0891C167.294 13.6817 159.382 14.6458 151.721 16.7808C143.632 19.0351 135.922 22.5337 128.063 25.5651C115.662 30.3483 110.5 33.5 89.9261 49.6204C85.6525 56.5466 80.7953 61.6481 75.8495 68.1836C72.0834 73.1602 67.8134 77.3786 64.8691 82.9573C62.1817 88.0491 59.2094 95.0863 55.7871 99.7309C52.1716 104.638 49.7101 110.211 46.5037 115.303C45.0739 117.574 44.453 120.072 44.3076 122.69C44.1351 125.795 41.1762 129.028 39.8156 131.674C31.3975 142.209 30.602 155.383 27.6373 166.913C24.7174 178.268 22.1525 187.186 22.1525 199.155C22.1525 209.004 21.0356 219.284 24.8477 228.603C28.9439 238.616 36.9012 247.509 42.6159 256.653C44.6622 259.927 45.7952 263.51 47.5072 266.934C50.4509 272.822 53.417 278.585 56.2915 284.503C58.5924 289.24 60.9772 293.351 64.1775 297.58C66.5757 300.749 69.3062 303.541 71.8637 306.564C72.7579 307.62 77.4538 312.036 77.4538 313.252C77.4538 314.382 75.203 311.885 75.1579 310.756C75.0946 309.174 75.2983 308.662 76.9547 308.76C77.474 308.79 79.6737 311.803 80.3486 312.553C82.4457 314.883 84.648 316.453 86.837 318.642C89.1403 320.945 90.0241 324.395 92.2274 326.728C96.1837 330.917 101.07 337.055 106.402 339.105C109.238 340.196 110.245 343.103 112.891 344.496C115.924 346.092 118.896 348.165 122.074 349.387C135.115 354.403 133.387 359.457 147 363C154.616 364.982 165.917 368.414 172.5 372.5C175.596 374.421 188.21 376.139 191.949 376.139C206.793 376.139 221.402 375.241 236.27 375.241C250.854 375.241 262.144 373.267 274.402 365.359C284.815 358.64 295.762 352.875 306.245 346.293C325.492 334.207 341.961 317.083 354.859 298.578C360.483 290.508 366.517 281.521 370.531 272.524C374.543 263.53 380.336 255.568 383.507 246.171C386.855 236.252 391.71 226.789 394.089 216.524C396.19 207.455 396.876 197.969 398.381 188.774C398.381 172 394.089 174 394.987 154.036" stroke="black" stroke-width="12" stroke-linecap="round"/>
<path d="M407 209H15C10.0294 209 6 213.029 6 218V311C6 315.971 10.0294 320 15 320H344.501L365.106 346.843C369.745 352.886 379.324 350.793 381.02 343.367L386.357 320H407C411.971 320 416 315.971 416 311V218C416 213.029 411.971 209 407 209Z" fill="#0F7DFF" stroke="black" stroke-width="12" stroke-linejoin="round"/>
<path d="M85.0605 291.821C85.4125 291.88 85.793 291.939 86.2035 291.997C86.672 291.997 87.1115 292.056 87.5215 292.173C87.9905 292.232 88.4005 292.349 88.752 292.525C89.1625 292.7 89.4555 292.964 89.631 293.316C89.3965 293.96 89.2795 294.312 89.2795 294.37C89.2795 294.37 89.25 294.487 89.1915 294.722C88.8985 294.956 88.547 295.103 88.137 295.161C87.7265 295.161 87.4045 295.308 87.17 295.601C86.7015 295.308 86.174 295.161 85.588 295.161C85.002 295.22 84.4455 295.191 83.918 295.073C83.508 295.015 83.0685 294.927 82.6 294.81C82.131 294.634 81.6915 294.663 81.2815 294.898C80.9885 294.78 80.666 294.663 80.3145 294.546C80.0215 294.429 79.6995 294.4 79.348 294.458C79.172 294.341 79.0255 294.224 78.9085 294.107C78.791 293.931 78.674 293.755 78.557 293.579C78.3225 293.579 77.971 293.609 77.502 293.667C77.092 293.667 76.8285 293.579 76.711 293.403C76.4765 293.462 76.2715 293.55 76.096 293.667C75.9785 293.784 75.803 293.872 75.5685 293.931C74.924 293.989 74.5725 294.048 74.514 294.107C74.4555 294.165 74.3675 294.224 74.25 294.282C73.7815 294.4 73.2835 294.458 72.756 294.458C72.2875 294.458 71.8185 294.517 71.35 294.634C71.057 294.634 70.8225 294.692 70.6465 294.81C70.471 294.868 70.266 294.898 70.0315 294.898C69.7385 294.898 69.4455 294.868 69.1525 294.81C68.918 294.692 68.6545 294.634 68.3615 294.634C68.01 294.575 67.7465 294.605 67.5705 294.722C67.3945 294.839 67.1015 294.81 66.6915 294.634C66.223 294.575 65.725 294.575 65.1975 294.634C64.7285 294.692 64.26 294.692 63.791 294.634C63.674 294.458 63.557 294.282 63.4395 294.107C63.3225 293.872 63.176 293.696 63 293.579C63.2345 292.993 63.586 292.583 64.055 292.349C64.5235 292.114 64.9925 291.968 65.461 291.909C65.9885 291.851 66.428 291.851 66.7795 291.909C67.1895 291.909 67.4535 291.821 67.5705 291.646C68.039 291.763 68.596 291.851 69.2405 291.909C69.9435 291.968 70.471 291.763 70.8225 291.294C70.764 290.298 70.793 289.36 70.9105 288.482C71.086 287.544 71.174 286.577 71.174 285.581C71.1155 285.054 71.086 284.526 71.086 283.999C71.1445 283.413 71.2325 282.857 71.35 282.329C71.467 281.685 71.584 281.099 71.7015 280.571C71.877 279.985 71.9065 279.37 71.789 278.726C71.7305 278.257 71.76 277.759 71.877 277.232C71.9945 276.704 72.082 276.177 72.141 275.65C72.258 275.064 72.3165 274.507 72.3165 273.98C72.3165 273.394 72.1995 272.837 71.965 272.31C72.3165 272.075 72.4045 271.724 72.2285 271.255C72.053 270.786 71.965 270.376 71.965 270.025C71.965 269.849 71.9945 269.702 72.053 269.585C72.1115 269.409 72.141 269.234 72.141 269.058C72.141 268.882 72.1115 268.735 72.053 268.618C71.9945 268.442 71.965 268.267 71.965 268.091C72.1995 267.388 72.2875 266.978 72.2285 266.86C72.17 266.685 72.141 266.538 72.141 266.421C72.141 266.187 72.1995 266.011 72.3165 265.894C72.4925 265.718 72.5805 265.513 72.5805 265.278C72.639 265.103 72.6095 264.956 72.4925 264.839C72.434 264.663 72.434 264.487 72.4925 264.312C72.4925 264.136 72.5215 263.989 72.5805 263.872C72.639 263.696 72.6975 263.521 72.756 263.345C72.873 262.817 72.961 262.349 73.0195 261.939C73.0785 261.528 73.1075 261.177 73.1075 260.884C73.1075 260.65 73.0785 260.444 73.0195 260.269C72.961 260.093 72.932 259.917 72.932 259.741C72.9905 259.273 73.0785 258.804 73.1955 258.335C73.3125 257.866 73.4005 257.398 73.459 256.929C73.5765 256.05 73.6055 255.171 73.547 254.292C73.4885 253.355 73.5175 252.446 73.635 251.567C73.635 251.099 73.6935 250.63 73.8105 250.161C73.9865 249.692 73.928 249.224 73.635 248.755C73.9865 248.286 74.133 247.73 74.0745 247.085C74.016 246.382 74.016 245.737 74.0745 245.151C74.133 244.683 74.221 244.243 74.338 243.833C74.4555 243.423 74.543 243.042 74.6015 242.691C74.4845 241.987 74.514 241.577 74.6895 241.46C74.8655 241.284 74.8945 241.05 74.7775 240.757C75.012 239.937 75.1 239.409 75.041 239.175C74.9825 238.882 74.9825 238.589 75.041 238.296C75.041 237.827 75.129 237.388 75.305 236.978C75.4805 236.567 75.627 236.187 75.7445 235.835C75.627 235.776 75.305 235.864 74.7775 236.099C74.25 236.275 73.957 236.392 73.8985 236.45C73.664 236.743 73.459 236.89 73.2835 236.89C73.166 236.831 73.049 236.86 72.932 236.978C72.639 237.153 72.2875 237.388 71.877 237.681C71.5255 237.974 71.174 238.12 70.8225 238.12C70.3535 238.062 69.9435 237.827 69.592 237.417C69.299 237.007 69.1525 236.597 69.1525 236.187C69.797 235.425 70.559 235.044 71.4375 235.044C72.0235 234.751 72.5215 234.429 72.932 234.077C73.4005 233.667 73.957 233.374 74.6015 233.198C74.7775 233.023 74.9825 232.759 75.217 232.407C75.7445 232.466 76.125 232.349 76.3595 232.056C76.6525 231.763 77.0335 231.587 77.502 231.528C77.795 231.235 78.088 231.03 78.381 230.913C78.7325 230.796 79.055 230.62 79.348 230.386C79.641 230.21 79.875 229.976 80.051 229.683C80.2265 229.39 80.5195 229.243 80.93 229.243C81.5745 228.892 82.1015 228.921 82.512 229.331C82.922 229.683 83.1855 230.034 83.303 230.386C83.3615 230.855 83.215 231.411 82.8635 232.056C82.5705 232.642 82.3655 233.198 82.248 233.726C82.248 234.019 82.2775 234.312 82.336 234.605C82.3945 234.898 82.424 235.191 82.424 235.484C82.541 235.601 82.512 235.835 82.336 236.187C82.219 236.48 82.131 236.685 82.0725 236.802C82.0725 237.622 82.1015 238.208 82.1605 238.56C82.219 238.853 82.307 239.146 82.424 239.439C82.1895 239.966 82.1015 240.405 82.1605 240.757C82.219 241.05 82.248 241.255 82.248 241.372C82.3655 242.368 82.424 243.335 82.424 244.273C82.424 245.21 82.424 246.148 82.424 247.085C82.424 247.319 82.4535 247.554 82.512 247.788C82.629 247.964 82.6585 248.169 82.6 248.403C82.6 248.579 82.541 248.755 82.424 248.931C82.3655 249.048 82.307 249.194 82.248 249.37C82.248 249.898 82.248 250.454 82.248 251.04C82.307 251.567 82.3655 252.066 82.424 252.534C82.4825 252.71 82.541 252.886 82.6 253.062C82.717 253.179 82.7755 253.325 82.7755 253.501C82.834 254.146 82.7755 254.761 82.6 255.347C82.424 255.933 82.4825 256.519 82.7755 257.105C82.6 257.515 82.4825 258.013 82.424 258.599C82.3655 259.126 82.3655 259.683 82.424 260.269C82.4825 260.855 82.541 261.441 82.6 262.026C82.717 262.554 82.7755 263.052 82.7755 263.521C82.7755 263.755 82.7465 264.019 82.6875 264.312C82.629 264.605 82.6585 264.868 82.7755 265.103C83.01 265.513 83.0685 265.864 82.9515 266.157C82.8925 266.392 82.8925 266.655 82.9515 266.948C82.9515 267.183 83.01 267.622 83.127 268.267C83.2445 268.853 83.332 269.497 83.391 270.2C83.4495 270.845 83.4785 271.46 83.4785 272.046C83.5375 272.573 83.4785 272.896 83.303 273.013C83.3615 273.189 83.42 273.599 83.4785 274.243C83.5375 274.829 83.5665 275.474 83.5665 276.177C83.5665 276.88 83.5375 277.525 83.4785 278.11C83.42 278.696 83.3615 279.019 83.303 279.077C83.42 279.898 83.508 280.718 83.5665 281.538C83.684 282.3 83.801 283.091 83.918 283.911C83.918 284.321 83.918 284.614 83.918 284.79C83.918 284.907 83.9765 285.112 84.094 285.405C84.1525 285.698 84.211 285.962 84.2695 286.196C84.387 286.372 84.475 286.607 84.5335 286.9C84.709 287.72 84.797 288.54 84.797 289.36C84.8555 290.181 84.9435 291.001 85.0605 291.821ZM79.172 234.165C78.9965 234.341 78.879 234.575 78.8205 234.868C78.8205 235.161 78.674 235.366 78.381 235.484C78.4395 235.952 78.3515 236.362 78.1175 236.714C77.9415 237.007 77.795 237.359 77.678 237.769C77.6195 238.062 77.5315 238.384 77.414 238.735C77.3555 239.087 77.3265 239.439 77.3265 239.79C77.4435 240.493 77.4435 240.933 77.3265 241.109C77.2675 241.226 77.2385 241.372 77.2385 241.548C77.18 241.9 77.1215 242.456 77.0625 243.218C77.004 243.921 76.916 244.712 76.799 245.591C76.7405 246.411 76.682 247.202 76.623 247.964C76.5645 248.726 76.5355 249.194 76.5355 249.37C76.5355 249.663 76.5645 249.898 76.623 250.073C76.682 250.249 76.711 250.454 76.711 250.689C76.711 251.157 76.623 251.626 76.4475 252.095C76.3305 252.564 76.2425 252.974 76.184 253.325C76.301 253.97 76.301 254.38 76.184 254.556C76.125 254.732 76.096 254.937 76.096 255.171C76.0375 255.405 76.0375 255.64 76.096 255.874C76.1545 256.05 76.184 256.255 76.184 256.489C76.184 256.724 76.1545 256.958 76.096 257.192C76.096 257.427 76.096 257.661 76.096 257.896C76.0375 258.13 76.0375 258.335 76.096 258.511C76.1545 258.687 76.184 258.862 76.184 259.038C76.184 259.331 76.1545 259.595 76.096 259.829C76.096 260.064 76.096 260.298 76.096 260.532C75.9785 261.411 75.803 262.29 75.5685 263.169C75.334 264.048 75.1585 264.927 75.041 265.806C74.9825 266.45 74.9535 267.241 74.9535 268.179C75.012 269.116 75.1585 269.907 75.3925 270.552C75.1 271.021 75.012 271.519 75.129 272.046C75.2465 272.515 75.2755 272.984 75.217 273.452C75.1 274.038 75.0705 274.39 75.129 274.507C75.1875 274.566 75.217 274.653 75.217 274.771C75.041 275.181 75.012 275.444 75.129 275.562C75.2465 275.679 75.2755 275.855 75.217 276.089C74.9825 276.558 74.8655 276.88 74.8655 277.056C74.924 277.173 74.9535 277.29 74.9535 277.407C74.836 277.935 74.748 278.462 74.6895 278.989C74.631 279.517 74.543 280.015 74.426 280.484C74.25 281.304 74.1915 282.095 74.25 282.857C74.309 283.56 74.309 284.292 74.25 285.054C74.1915 285.757 74.0745 286.519 73.8985 287.339C73.7815 288.159 73.8985 288.892 74.25 289.536C73.8985 289.888 73.8985 290.386 74.25 291.03C74.426 291.03 74.6605 291.001 74.9535 290.942C75.305 290.884 75.627 290.825 75.92 290.767C76.2715 290.708 76.5645 290.679 76.799 290.679C77.092 290.62 77.2385 290.62 77.2385 290.679C77.707 290.62 78.176 290.62 78.6445 290.679C79.172 290.737 79.67 290.855 80.139 291.03C80.432 291.089 80.6955 291.206 80.93 291.382C81.223 291.558 81.516 291.587 81.809 291.47C81.6915 291.177 81.633 290.884 81.633 290.591C81.633 290.298 81.5745 290.005 81.457 289.712C81.5745 289.126 81.5745 288.54 81.457 287.954C81.34 287.368 81.1935 286.782 81.0175 286.196C80.842 285.552 80.6955 284.937 80.5785 284.351C80.461 283.765 80.432 283.208 80.4905 282.681C80.4905 282.505 80.5195 282.329 80.5785 282.153C80.637 281.978 80.666 281.802 80.666 281.626C80.432 280.454 80.344 279.546 80.4025 278.901C80.461 278.198 80.373 277.525 80.139 276.88C80.4905 276.411 80.6075 275.767 80.4905 274.946C80.373 274.067 80.3145 273.306 80.3145 272.661C80.3145 272.368 80.344 272.105 80.4025 271.87C80.461 271.577 80.4905 271.284 80.4905 270.991C80.432 270.757 80.344 270.552 80.2265 270.376C80.1095 270.2 80.139 270.025 80.3145 269.849C80.256 269.614 80.168 269.38 80.051 269.146C79.9925 268.911 80.0215 268.706 80.139 268.53C80.0805 268.003 79.9925 267.476 79.875 266.948C79.758 266.362 79.7875 265.806 79.963 265.278C79.9045 264.81 79.875 264.37 79.875 263.96C79.934 263.55 79.9045 263.169 79.7875 262.817C79.7875 262.642 79.7285 262.495 79.6115 262.378C79.553 262.202 79.5235 262.026 79.5235 261.851C79.641 261.089 79.67 260.62 79.6115 260.444C79.553 260.21 79.5235 259.976 79.5235 259.741C79.5235 259.038 79.6115 258.247 79.7875 257.368C79.963 256.431 79.875 255.64 79.5235 254.995C79.8165 253.999 79.846 253.091 79.6115 252.271C79.377 251.392 79.289 250.484 79.348 249.546C79.348 249.37 79.4065 249.165 79.5235 248.931C79.641 248.638 79.6995 248.403 79.6995 248.228C79.641 247.7 79.553 247.349 79.4355 247.173C79.377 246.997 79.348 246.88 79.348 246.821C79.5235 246.06 79.553 245.591 79.4355 245.415C79.377 245.239 79.348 245.034 79.348 244.8C79.289 244.624 79.289 244.448 79.348 244.273C79.4065 244.097 79.465 243.892 79.5235 243.657C79.5235 242.954 79.553 242.163 79.6115 241.284C79.67 240.405 79.582 239.614 79.348 238.911C79.582 238.091 79.67 237.271 79.6115 236.45C79.6115 235.571 79.67 234.722 79.7875 233.901L79.172 234.165ZM129.094 229.771C129.622 229.771 130.06 229.8 130.412 229.859C130.764 229.917 131.145 229.888 131.555 229.771C131.672 229.946 132.024 230.151 132.61 230.386C133.196 230.562 133.84 230.767 134.543 231.001C135.247 231.177 135.891 231.411 136.477 231.704C137.063 231.997 137.443 232.319 137.619 232.671C138.615 232.905 139.377 233.169 139.905 233.462C140.432 233.755 141.077 234.048 141.838 234.341C142.131 234.458 142.454 234.546 142.805 234.605C143.157 234.605 143.449 234.692 143.684 234.868C144.445 235.337 145.178 235.864 145.881 236.45C146.584 237.036 147.17 237.417 147.639 237.593C147.932 238.237 148.313 238.735 148.782 239.087C149.309 239.439 149.69 239.761 149.924 240.054C149.983 240.171 150.071 240.405 150.188 240.757C150.305 241.05 150.422 241.255 150.539 241.372C150.891 241.607 151.067 241.812 151.067 241.987C151.067 242.105 151.125 242.222 151.243 242.339C151.711 242.808 151.916 243.13 151.858 243.306C151.799 243.423 151.916 243.482 152.209 243.482C152.327 243.775 152.356 244.038 152.297 244.273C152.297 244.507 152.355 244.741 152.473 244.976C152.824 245.386 153.03 245.737 153.088 246.03C153.147 246.265 153.235 246.528 153.352 246.821C153.469 246.997 153.586 247.144 153.703 247.261C153.879 247.378 154.026 247.554 154.143 247.788C154.26 248.023 154.319 248.257 154.319 248.491C154.319 248.667 154.377 248.872 154.494 249.107C154.553 249.282 154.612 249.458 154.67 249.634C154.788 249.81 154.875 250.015 154.934 250.249C155.051 250.542 155.11 250.835 155.11 251.128C155.11 251.421 155.11 251.714 155.11 252.007C155.051 252.476 155.051 252.769 155.11 252.886C155.168 252.944 155.226 253.032 155.285 253.15C155.461 253.735 155.549 254.175 155.549 254.468C155.608 254.761 155.666 255.112 155.725 255.523C155.783 255.874 155.842 256.226 155.901 256.577C156.018 256.87 156.076 257.046 156.076 257.105C156.428 257.749 156.574 258.071 156.516 258.071C156.457 258.071 156.428 258.13 156.428 258.247C156.545 258.657 156.545 258.98 156.428 259.214C156.37 259.39 156.311 259.624 156.252 259.917C156.252 260.21 156.252 260.474 156.252 260.708C156.311 260.942 156.311 261.206 156.252 261.499C156.194 261.968 156.106 262.437 155.989 262.905C155.93 263.374 155.872 263.843 155.813 264.312C155.696 264.956 155.666 265.601 155.725 266.245C155.783 266.831 155.754 267.446 155.637 268.091C155.579 268.267 155.491 268.442 155.373 268.618C155.315 268.794 155.227 268.999 155.11 269.234C154.993 269.526 154.905 269.878 154.846 270.288C154.788 270.64 154.758 270.991 154.758 271.343C154.817 271.753 154.788 272.105 154.67 272.398C154.612 272.632 154.553 272.896 154.494 273.189C154.377 273.482 154.319 273.775 154.319 274.067C154.377 274.36 154.377 274.653 154.319 274.946C154.26 275.122 154.172 275.298 154.055 275.474C153.997 275.591 153.909 275.737 153.791 275.913C153.674 276.265 153.616 276.646 153.616 277.056C153.616 277.407 153.528 277.73 153.352 278.023C153.235 278.198 153.118 278.345 153 278.462C152.942 278.579 152.883 278.726 152.825 278.901C152.59 279.546 152.473 280.191 152.473 280.835C152.531 281.48 152.502 282.124 152.385 282.769C152.268 283.12 152.092 283.472 151.858 283.823C151.623 284.116 151.447 284.439 151.33 284.79C151.154 285.317 150.95 285.845 150.715 286.372C150.481 286.9 150.305 287.456 150.188 288.042C149.719 288.628 149.192 289.185 148.606 289.712C148.02 290.181 147.58 290.767 147.287 291.47C146.642 291.821 145.969 292.173 145.266 292.525C144.562 292.817 143.918 293.228 143.332 293.755C142.981 293.638 142.659 293.667 142.366 293.843C142.131 294.019 141.868 294.165 141.575 294.282C141.223 294.4 140.872 294.517 140.52 294.634C140.227 294.692 139.905 294.78 139.553 294.898C138.909 295.191 138.293 295.484 137.707 295.776C137.122 296.069 136.477 296.275 135.774 296.392C135.305 296.509 134.836 296.567 134.368 296.567C133.957 296.626 133.518 296.743 133.049 296.919C132.405 297.095 131.76 297.271 131.116 297.446C130.471 297.681 129.797 297.827 129.094 297.886C128.918 297.886 128.743 297.857 128.567 297.798C128.45 297.739 128.303 297.71 128.127 297.71C127.483 297.827 126.896 297.827 126.369 297.71C125.9 297.651 125.373 297.564 124.787 297.446C124.201 297.388 123.645 297.3 123.118 297.183C122.649 297.124 122.356 297.066 122.239 297.007C121.77 296.89 121.243 296.685 120.657 296.392C120.071 296.099 119.543 295.982 119.075 296.04C119.016 295.806 118.84 295.63 118.547 295.513C118.313 295.454 118.107 295.366 117.932 295.249C117.404 294.956 117.024 294.722 116.789 294.546C116.614 294.37 116.467 294.224 116.35 294.107C116.057 293.989 115.676 293.755 115.207 293.403C114.973 293.11 114.768 292.935 114.592 292.876C114.475 292.817 114.358 292.73 114.241 292.612C113.713 292.378 113.391 292.202 113.274 292.085C113.215 291.968 113.157 291.88 113.098 291.821C112.629 291.47 112.161 291.148 111.692 290.855C111.282 290.503 110.813 290.269 110.286 290.151C110.051 289.8 109.758 289.507 109.407 289.273C109.055 288.98 108.733 288.687 108.44 288.394C108.147 287.866 107.942 287.632 107.825 287.691C107.707 287.691 107.59 287.632 107.473 287.515C107.239 287.398 107.004 287.163 106.77 286.812C106.536 286.46 106.331 286.167 106.155 285.933C105.92 285.581 105.685 285.23 105.451 284.878C105.275 284.468 105.041 284.116 104.748 283.823C104.514 283.589 104.221 283.355 103.87 283.12C103.577 282.886 103.372 282.681 103.254 282.505C102.786 281.86 102.58 281.45 102.639 281.275C102.697 281.04 102.581 280.894 102.288 280.835C102.229 280.191 102.082 279.575 101.848 278.989C101.614 278.345 101.409 277.7 101.233 277.056C101.116 276.528 101.028 276.001 100.969 275.474C100.969 274.888 100.911 274.331 100.793 273.804C100.735 273.569 100.647 273.364 100.53 273.189C100.413 272.954 100.325 272.72 100.266 272.485C100.266 271.958 100.237 271.665 100.178 271.607C100.12 271.548 100.061 271.46 100.002 271.343C99.9435 271.109 99.9435 270.874 100.002 270.64C100.061 270.405 100.09 270.142 100.09 269.849C100.149 269.614 100.178 269.292 100.178 268.882C100.237 268.413 100.266 267.944 100.266 267.476C100.325 267.007 100.354 266.567 100.354 266.157C100.413 265.747 100.442 265.454 100.442 265.278L100.09 264.312C100.09 263.726 100.12 263.345 100.178 263.169C100.237 262.993 100.266 262.817 100.266 262.642C100.266 262.525 100.207 262.319 100.09 262.026C99.973 261.675 99.973 261.441 100.09 261.323C100.149 260.913 100.207 260.562 100.266 260.269C100.325 259.976 100.266 259.8 100.09 259.741C100.325 259.214 100.471 258.804 100.53 258.511C100.588 258.218 100.588 257.954 100.53 257.72C100.53 257.427 100.5 257.163 100.442 256.929C100.442 256.636 100.442 256.255 100.442 255.786C100.442 255.669 100.53 255.259 100.706 254.556C100.881 253.853 101.057 253.12 101.233 252.359C101.467 251.538 101.672 250.806 101.848 250.161C102.082 249.458 102.229 249.048 102.288 248.931C102.463 248.579 102.668 248.257 102.903 247.964C103.196 247.612 103.459 247.29 103.694 246.997C103.987 246.528 104.25 246.06 104.485 245.591C104.778 245.122 105.188 244.771 105.715 244.536C105.657 244.36 105.715 244.097 105.891 243.745C106.125 243.335 106.389 242.925 106.682 242.515C106.975 242.105 107.268 241.724 107.561 241.372C107.854 241.021 108.059 240.757 108.176 240.581C108.586 239.937 109.055 239.38 109.582 238.911C110.168 238.384 110.608 237.798 110.901 237.153C111.018 237.153 111.34 236.978 111.868 236.626C112.395 236.275 112.98 235.894 113.625 235.484C114.27 235.015 114.885 234.605 115.471 234.253C116.116 233.843 116.614 233.609 116.965 233.55C117.551 233.081 118.166 232.7 118.811 232.407C119.456 232.114 120.1 231.821 120.744 231.528C120.978 231.411 121.155 231.323 121.272 231.265C121.448 231.148 121.653 231.03 121.887 230.913C122.063 230.855 122.355 230.796 122.766 230.737C123.176 230.62 123.586 230.532 123.996 230.474C124.465 230.357 124.905 230.269 125.315 230.21C125.725 230.151 126.018 230.122 126.194 230.122C126.663 230.122 127.131 230.151 127.6 230.21C128.127 230.21 128.625 230.064 129.094 229.771ZM133.313 233.198C133.02 232.905 132.756 232.759 132.522 232.759C132.288 232.759 132.082 232.73 131.907 232.671C131.672 232.612 131.437 232.554 131.203 232.495C131.027 232.437 130.823 232.407 130.588 232.407C130.237 232.349 129.856 232.349 129.446 232.407C129.094 232.466 128.772 232.525 128.479 232.583C128.127 232.583 127.747 232.554 127.336 232.495C126.985 232.437 126.633 232.466 126.282 232.583C126.047 232.583 125.637 232.7 125.051 232.935C124.465 233.169 124.026 233.316 123.733 233.374C122.971 233.316 122.59 233.403 122.59 233.638C122.649 233.872 122.532 233.96 122.239 233.901C121.536 234.019 120.979 234.253 120.569 234.605C120.159 234.956 119.719 235.366 119.25 235.835C119.075 236.069 118.84 236.275 118.547 236.45C118.313 236.626 118.107 236.86 117.932 237.153C117.873 237.271 117.786 237.476 117.668 237.769C117.61 238.003 117.522 238.267 117.405 238.56C117.288 238.853 117.141 239.116 116.965 239.351C116.848 239.585 116.76 239.673 116.701 239.614C116.818 240.493 116.526 241.138 115.823 241.548C115.881 241.841 115.881 242.222 115.823 242.691C115.764 243.101 115.647 243.54 115.471 244.009C115.354 244.478 115.207 244.917 115.032 245.327C114.856 245.737 114.68 246.06 114.504 246.294C114.68 247.173 114.622 248.052 114.329 248.931C114.094 249.575 114.006 249.985 114.065 250.161C114.182 250.278 114.241 250.425 114.241 250.601C114.241 250.894 114.211 251.187 114.153 251.48C114.153 251.773 114.123 252.066 114.065 252.359C113.948 252.769 113.889 253.179 113.889 253.589C113.947 253.999 113.947 254.409 113.889 254.819C113.83 254.995 113.772 255.171 113.713 255.347C113.655 255.464 113.596 255.61 113.538 255.786C113.42 256.255 113.391 256.753 113.45 257.28C113.508 257.808 113.479 258.306 113.362 258.775C113.303 259.185 113.186 259.566 113.01 259.917C112.893 260.269 112.805 260.65 112.747 261.06C112.629 261.528 112.571 262.026 112.571 262.554C112.629 263.023 112.688 263.491 112.747 263.96C112.747 264.429 112.717 264.898 112.659 265.366C112.6 265.835 112.571 266.304 112.571 266.773C112.571 267.007 112.6 267.241 112.659 267.476C112.776 267.651 112.864 267.857 112.922 268.091C113.039 268.677 113.098 269.116 113.098 269.409C113.098 269.702 113.098 270.054 113.098 270.464C113.157 270.816 113.186 271.167 113.186 271.519C113.186 271.87 113.186 272.075 113.186 272.134C113.186 272.603 113.157 272.954 113.098 273.189C113.098 273.364 113.186 273.687 113.362 274.155C113.186 274.624 113.157 274.946 113.274 275.122C113.391 275.239 113.479 275.444 113.538 275.737C113.303 275.972 113.215 276.177 113.274 276.353C113.332 276.47 113.362 276.646 113.362 276.88C113.303 277.173 113.303 277.378 113.362 277.495C113.479 277.612 113.538 277.759 113.538 277.935C113.42 278.169 113.449 278.55 113.625 279.077C113.801 279.605 113.977 280.191 114.153 280.835C114.387 281.48 114.592 282.095 114.768 282.681C115.002 283.208 115.149 283.53 115.207 283.648C115.325 283.941 115.442 284.175 115.559 284.351C115.735 284.526 115.881 284.761 115.998 285.054C116.057 285.23 116.057 285.405 115.998 285.581C115.998 285.757 116.057 285.933 116.174 286.109C116.467 286.401 116.584 286.607 116.526 286.724C116.467 286.841 116.467 286.958 116.526 287.075C116.584 287.251 116.672 287.456 116.789 287.691C116.907 287.866 117.023 288.042 117.141 288.218C117.668 288.921 117.991 289.478 118.108 289.888C118.225 290.239 118.401 290.562 118.635 290.855L119.426 292.173C119.895 292.7 120.217 292.935 120.393 292.876C120.569 292.817 120.745 292.847 120.92 292.964C121.506 293.491 121.887 293.755 122.063 293.755C122.239 293.755 122.414 293.814 122.59 293.931C123 294.165 123.264 294.312 123.381 294.37C123.557 294.429 123.879 294.517 124.348 294.634C124.992 294.634 125.344 294.692 125.403 294.81C125.461 294.868 125.549 294.898 125.666 294.898C126.311 294.839 126.721 294.868 126.897 294.985C127.131 295.044 127.365 295.073 127.6 295.073C128.244 295.132 128.654 295.132 128.83 295.073C129.064 294.956 129.328 294.898 129.621 294.898C130.441 294.956 130.94 294.956 131.116 294.898C131.35 294.78 131.614 294.692 131.907 294.634C132.375 294.458 132.873 294.341 133.401 294.282C133.987 294.165 134.514 293.989 134.983 293.755C135.217 293.638 135.422 293.55 135.598 293.491C135.832 293.374 136.067 293.257 136.301 293.14C136.477 293.198 136.652 293.228 136.828 293.228C137.062 293.228 137.268 293.257 137.444 293.316C137.561 293.081 137.737 292.993 137.971 293.052C138.206 293.052 138.411 293.023 138.586 292.964C138.645 292.964 138.821 292.876 139.114 292.7C139.465 292.525 139.817 292.349 140.168 292.173C140.52 291.997 140.842 291.821 141.135 291.646C141.428 291.47 141.603 291.353 141.662 291.294C141.955 291.118 142.219 291.001 142.453 290.942C142.746 290.884 143.039 290.796 143.332 290.679C143.743 290.444 144.094 290.151 144.387 289.8C144.68 289.448 144.973 289.126 145.266 288.833C145.734 288.482 146.174 288.13 146.584 287.778C146.995 287.427 147.346 287.017 147.639 286.548C147.932 286.079 148.254 285.493 148.606 284.79C149.016 284.087 149.221 283.413 149.221 282.769C149.397 282.651 149.485 282.505 149.485 282.329C149.543 282.153 149.631 281.978 149.748 281.802C149.924 281.392 150.041 281.04 150.1 280.747C150.217 280.396 150.276 280.103 150.276 279.868C150.334 279.575 150.392 279.312 150.451 279.077C150.51 278.784 150.598 278.433 150.715 278.023C151.067 277.378 151.184 277.056 151.067 277.056C151.008 276.997 151.008 276.909 151.067 276.792C151.36 276.148 151.477 275.679 151.418 275.386C151.418 275.034 151.389 274.712 151.33 274.419C151.506 274.243 151.653 273.95 151.77 273.54C151.946 273.071 152.034 272.72 152.034 272.485C151.975 272.192 151.975 271.958 152.034 271.782C152.092 271.607 152.151 271.401 152.209 271.167C152.327 270.523 152.414 269.849 152.473 269.146C152.531 268.384 152.444 267.71 152.209 267.124C152.502 266.831 152.561 266.538 152.385 266.245C152.268 265.952 152.297 265.689 152.473 265.454C152.531 265.396 152.62 264.927 152.737 264.048C152.854 263.169 152.942 262.232 153 261.235C153.118 260.181 153.176 259.214 153.176 258.335C153.235 257.456 153.235 256.929 153.176 256.753C153.059 256.519 153.03 256.314 153.088 256.138C153.147 255.903 153.118 255.669 153 255.435C152.883 255.2 152.737 254.995 152.561 254.819C152.385 254.644 152.268 254.409 152.209 254.116C152.268 253.648 152.238 253.15 152.121 252.622C152.062 252.095 152.034 251.567 152.034 251.04C151.858 250.923 151.682 250.513 151.506 249.81C151.389 249.107 151.184 248.579 150.891 248.228V247.261C150.773 247.085 150.627 246.909 150.451 246.734C150.275 246.558 150.129 246.353 150.012 246.118L149.748 245.151C149.69 244.976 149.66 244.771 149.66 244.536C149.66 244.302 149.631 244.126 149.573 244.009C149.338 243.599 148.987 243.189 148.518 242.778C148.049 242.368 147.786 241.9 147.727 241.372C147.434 241.255 147.17 241.079 146.936 240.845C146.76 240.552 146.497 240.347 146.145 240.23C145.207 238.999 144.446 238.179 143.86 237.769C143.567 237.593 143.215 237.476 142.805 237.417C142.454 237.359 142.131 237.212 141.838 236.978C141.311 236.509 140.901 236.304 140.608 236.362C140.315 236.362 140.022 236.304 139.729 236.187C139.495 236.069 139.289 235.952 139.114 235.835C138.938 235.718 138.703 235.601 138.41 235.484C137.941 235.308 137.444 235.161 136.916 235.044C136.389 234.927 135.862 234.81 135.334 234.692C135.217 234.224 134.924 233.931 134.455 233.814C133.986 233.638 133.606 233.433 133.313 233.198ZM110.637 242.515C109.934 242.984 109.465 243.423 109.231 243.833C108.997 244.185 108.762 244.536 108.528 244.888C108.293 245.239 108.059 245.562 107.825 245.855C107.649 246.148 107.532 246.353 107.473 246.47C107.004 246.821 106.653 247.202 106.418 247.612C106.243 247.964 106.067 248.286 105.891 248.579C105.774 248.755 105.686 248.96 105.627 249.194C105.569 249.37 105.481 249.546 105.364 249.722C105.247 249.898 105.129 250.073 105.012 250.249C104.895 250.366 104.807 250.513 104.748 250.689C104.631 250.982 104.573 251.275 104.573 251.567C104.631 251.802 104.631 252.066 104.573 252.359C104.456 252.651 104.309 253.003 104.133 253.413C103.957 253.823 103.87 254.116 103.87 254.292C103.987 254.878 103.987 255.259 103.87 255.435C103.811 255.552 103.752 255.669 103.694 255.786C103.635 256.314 103.635 256.87 103.694 257.456C103.752 257.984 103.723 258.511 103.606 259.038C103.372 259.624 103.254 259.917 103.254 259.917C103.313 259.917 103.372 259.976 103.43 260.093C103.254 260.503 103.196 260.767 103.254 260.884C103.372 261.001 103.43 261.118 103.43 261.235C103.43 261.587 103.372 261.939 103.254 262.29C103.137 262.642 103.079 262.993 103.079 263.345C103.079 263.814 103.137 264.282 103.254 264.751C103.372 265.161 103.489 265.601 103.606 266.069C103.489 266.362 103.372 266.685 103.254 267.036C103.137 267.329 103.079 267.622 103.079 267.915C103.313 269.204 103.459 270.376 103.518 271.431C103.577 272.427 103.694 273.335 103.87 274.155C103.928 274.448 104.045 274.859 104.221 275.386C104.456 275.913 104.514 276.323 104.397 276.616C104.807 277.437 105.012 277.905 105.012 278.023C105.012 278.081 105.012 278.14 105.012 278.198C105.012 278.257 105.041 278.345 105.1 278.462C105.159 278.579 105.305 278.814 105.539 279.165C105.774 279.634 105.862 279.927 105.803 280.044C105.745 280.103 105.715 280.191 105.715 280.308C105.891 280.425 106.096 280.601 106.331 280.835C106.565 281.069 106.799 281.333 107.034 281.626C107.327 281.919 107.561 282.241 107.737 282.593C107.913 282.886 108 283.12 108 283.296C108.293 283.413 108.528 283.618 108.704 283.911C108.879 284.204 109.026 284.497 109.143 284.79C109.436 284.732 109.612 284.819 109.67 285.054C109.788 285.288 109.993 285.405 110.286 285.405C110.696 285.933 110.989 286.284 111.164 286.46C111.34 286.636 111.575 286.724 111.868 286.724C111.985 286.9 112.161 287.134 112.395 287.427C112.629 287.661 112.864 287.661 113.098 287.427C112.805 287.251 112.688 287.017 112.747 286.724C112.805 286.431 112.805 286.167 112.747 285.933C112.395 285.405 112.161 285.025 112.043 284.79C111.985 284.497 111.838 284.204 111.604 283.911C111.663 283.442 111.604 283.12 111.428 282.944C111.252 282.769 111.077 282.505 110.901 282.153C111.018 281.333 110.813 280.718 110.286 280.308C110.051 279.136 109.934 278.14 109.934 277.319C109.993 276.441 109.875 275.708 109.582 275.122C109.875 274.829 109.963 274.566 109.846 274.331C109.729 274.038 109.641 273.745 109.582 273.452C109.582 273.276 109.612 273.13 109.67 273.013C109.788 272.837 109.817 272.661 109.758 272.485C109.817 271.841 109.846 271.431 109.846 271.255C109.846 271.079 109.817 270.845 109.758 270.552C109.758 270.025 109.67 269.526 109.495 269.058C109.377 268.589 109.319 268.091 109.319 267.564C109.319 267.388 109.319 267.241 109.319 267.124C109.377 266.948 109.436 266.773 109.495 266.597C109.495 266.362 109.465 266.157 109.407 265.982C109.348 265.747 109.319 265.513 109.319 265.278C109.319 265.044 109.348 264.81 109.407 264.575C109.465 264.341 109.495 264.077 109.495 263.784C109.436 263.609 109.348 263.433 109.231 263.257C109.114 263.081 109.084 262.876 109.143 262.642C109.319 261.763 109.495 260.913 109.67 260.093C109.846 259.214 109.993 258.335 110.11 257.456C110.227 256.577 110.344 255.581 110.461 254.468C110.579 253.355 110.783 252.388 111.076 251.567C111.135 250.63 111.135 249.81 111.076 249.107C111.017 248.345 111.017 247.73 111.076 247.261C111.135 247.026 111.282 246.528 111.516 245.767C111.809 244.946 112.043 244.478 112.219 244.36C112.219 244.302 112.248 244.126 112.307 243.833C112.366 243.482 112.424 243.13 112.483 242.778C112.6 242.427 112.717 242.105 112.834 241.812C112.952 241.46 113.039 241.255 113.098 241.196C113.508 240.435 113.713 239.937 113.713 239.702C113.713 239.468 113.771 239.204 113.889 238.911C112.834 239.38 112.102 239.907 111.692 240.493C111.282 241.079 110.872 241.607 110.461 242.075L110.637 242.515ZM186.311 291.821C186.663 291.88 187.043 291.939 187.453 291.997C187.922 291.997 188.362 292.056 188.772 292.173C189.241 292.232 189.651 292.349 190.002 292.525C190.413 292.7 190.706 292.964 190.881 293.316C190.647 293.96 190.53 294.312 190.53 294.37C190.53 294.37 190.5 294.487 190.442 294.722C190.149 294.956 189.797 295.103 189.387 295.161C188.977 295.161 188.655 295.308 188.42 295.601C187.952 295.308 187.424 295.161 186.838 295.161C186.252 295.22 185.696 295.191 185.168 295.073C184.758 295.015 184.318 294.927 183.85 294.81C183.381 294.634 182.942 294.663 182.532 294.898C182.239 294.78 181.916 294.663 181.565 294.546C181.272 294.429 180.949 294.4 180.598 294.458C180.422 294.341 180.276 294.224 180.159 294.107C180.041 293.931 179.924 293.755 179.807 293.579C179.572 293.579 179.221 293.609 178.752 293.667C178.342 293.667 178.079 293.579 177.961 293.403C177.727 293.462 177.522 293.55 177.346 293.667C177.229 293.784 177.053 293.872 176.819 293.931C176.174 293.989 175.822 294.048 175.764 294.107C175.705 294.165 175.618 294.224 175.5 294.282C175.032 294.4 174.534 294.458 174.006 294.458C173.538 294.458 173.068 294.517 172.6 294.634C172.307 294.634 172.073 294.692 171.897 294.81C171.721 294.868 171.516 294.898 171.282 294.898C170.989 294.898 170.696 294.868 170.403 294.81C170.168 294.692 169.905 294.634 169.612 294.634C169.26 294.575 168.997 294.605 168.821 294.722C168.645 294.839 168.352 294.81 167.942 294.634C167.473 294.575 166.975 294.575 166.448 294.634C165.979 294.692 165.51 294.692 165.041 294.634C164.924 294.458 164.807 294.282 164.69 294.107C164.573 293.872 164.426 293.696 164.25 293.579C164.485 292.993 164.836 292.583 165.305 292.349C165.774 292.114 166.243 291.968 166.711 291.909C167.239 291.851 167.678 291.851 168.03 291.909C168.44 291.909 168.704 291.821 168.821 291.646C169.289 291.763 169.846 291.851 170.491 291.909C171.194 291.968 171.721 291.763 172.073 291.294C172.014 290.298 172.043 289.36 172.16 288.482C172.336 287.544 172.424 286.577 172.424 285.581C172.366 285.054 172.336 284.526 172.336 283.999C172.395 283.413 172.482 282.857 172.6 282.329C172.717 281.685 172.834 281.099 172.951 280.571C173.127 279.985 173.157 279.37 173.039 278.726C172.981 278.257 173.01 277.759 173.127 277.232C173.245 276.704 173.332 276.177 173.391 275.65C173.508 275.064 173.567 274.507 173.567 273.98C173.567 273.394 173.45 272.837 173.215 272.31C173.567 272.075 173.655 271.724 173.479 271.255C173.303 270.786 173.215 270.376 173.215 270.025C173.215 269.849 173.245 269.702 173.303 269.585C173.362 269.409 173.391 269.234 173.391 269.058C173.391 268.882 173.362 268.735 173.303 268.618C173.245 268.442 173.215 268.267 173.215 268.091C173.45 267.388 173.538 266.978 173.479 266.86C173.42 266.685 173.391 266.538 173.391 266.421C173.391 266.187 173.45 266.011 173.567 265.894C173.743 265.718 173.83 265.513 173.83 265.278C173.889 265.103 173.86 264.956 173.743 264.839C173.684 264.663 173.684 264.487 173.743 264.312C173.743 264.136 173.771 263.989 173.83 263.872C173.889 263.696 173.948 263.521 174.006 263.345C174.123 262.817 174.211 262.349 174.27 261.939C174.329 261.528 174.358 261.177 174.358 260.884C174.358 260.65 174.329 260.444 174.27 260.269C174.211 260.093 174.182 259.917 174.182 259.741C174.24 259.273 174.329 258.804 174.446 258.335C174.563 257.866 174.651 257.398 174.709 256.929C174.827 256.05 174.856 255.171 174.797 254.292C174.739 253.355 174.768 252.446 174.885 251.567C174.885 251.099 174.944 250.63 175.061 250.161C175.237 249.692 175.178 249.224 174.885 248.755C175.237 248.286 175.383 247.73 175.325 247.085C175.266 246.382 175.266 245.737 175.325 245.151C175.383 244.683 175.471 244.243 175.588 243.833C175.706 243.423 175.793 243.042 175.852 242.691C175.735 241.987 175.764 241.577 175.94 241.46C176.116 241.284 176.145 241.05 176.028 240.757C176.262 239.937 176.35 239.409 176.291 239.175C176.233 238.882 176.233 238.589 176.291 238.296C176.291 237.827 176.379 237.388 176.555 236.978C176.731 236.567 176.877 236.187 176.994 235.835C176.877 235.776 176.555 235.864 176.028 236.099C175.5 236.275 175.207 236.392 175.149 236.45C174.914 236.743 174.709 236.89 174.534 236.89C174.416 236.831 174.299 236.86 174.182 236.978C173.889 237.153 173.538 237.388 173.127 237.681C172.776 237.974 172.424 238.12 172.073 238.12C171.604 238.062 171.194 237.827 170.842 237.417C170.549 237.007 170.403 236.597 170.403 236.187C171.047 235.425 171.809 235.044 172.688 235.044C173.274 234.751 173.771 234.429 174.182 234.077C174.65 233.667 175.207 233.374 175.852 233.198C176.028 233.023 176.233 232.759 176.467 232.407C176.995 232.466 177.375 232.349 177.61 232.056C177.903 231.763 178.284 231.587 178.752 231.528C179.045 231.235 179.338 231.03 179.631 230.913C179.983 230.796 180.305 230.62 180.598 230.386C180.891 230.21 181.125 229.976 181.301 229.683C181.477 229.39 181.77 229.243 182.18 229.243C182.825 228.892 183.352 228.921 183.762 229.331C184.172 229.683 184.436 230.034 184.553 230.386C184.612 230.855 184.465 231.411 184.114 232.056C183.821 232.642 183.616 233.198 183.498 233.726C183.498 234.019 183.528 234.312 183.586 234.605C183.645 234.898 183.674 235.191 183.674 235.484C183.791 235.601 183.762 235.835 183.586 236.187C183.469 236.48 183.381 236.685 183.323 236.802C183.323 237.622 183.351 238.208 183.41 238.56C183.469 238.853 183.557 239.146 183.674 239.439C183.44 239.966 183.351 240.405 183.41 240.757C183.469 241.05 183.498 241.255 183.498 241.372C183.616 242.368 183.674 243.335 183.674 244.273C183.674 245.21 183.674 246.148 183.674 247.085C183.674 247.319 183.704 247.554 183.762 247.788C183.879 247.964 183.908 248.169 183.85 248.403C183.85 248.579 183.791 248.755 183.674 248.931C183.616 249.048 183.557 249.194 183.498 249.37C183.498 249.898 183.498 250.454 183.498 251.04C183.557 251.567 183.616 252.066 183.674 252.534C183.733 252.71 183.791 252.886 183.85 253.062C183.967 253.179 184.026 253.325 184.026 253.501C184.084 254.146 184.025 254.761 183.85 255.347C183.674 255.933 183.733 256.519 184.026 257.105C183.85 257.515 183.733 258.013 183.674 258.599C183.616 259.126 183.616 259.683 183.674 260.269C183.733 260.855 183.791 261.441 183.85 262.026C183.967 262.554 184.026 263.052 184.026 263.521C184.026 263.755 183.997 264.019 183.938 264.312C183.879 264.605 183.909 264.868 184.026 265.103C184.26 265.513 184.318 265.864 184.201 266.157C184.142 266.392 184.142 266.655 184.201 266.948C184.201 267.183 184.26 267.622 184.377 268.267C184.495 268.853 184.582 269.497 184.641 270.2C184.699 270.845 184.729 271.46 184.729 272.046C184.788 272.573 184.729 272.896 184.553 273.013C184.612 273.189 184.67 273.599 184.729 274.243C184.788 274.829 184.817 275.474 184.817 276.177C184.817 276.88 184.788 277.525 184.729 278.11C184.67 278.696 184.612 279.019 184.553 279.077C184.67 279.898 184.758 280.718 184.817 281.538C184.934 282.3 185.051 283.091 185.168 283.911C185.168 284.321 185.168 284.614 185.168 284.79C185.168 284.907 185.227 285.112 185.344 285.405C185.403 285.698 185.461 285.962 185.52 286.196C185.637 286.372 185.725 286.607 185.784 286.9C185.959 287.72 186.047 288.54 186.047 289.36C186.106 290.181 186.194 291.001 186.311 291.821ZM180.422 234.165C180.247 234.341 180.129 234.575 180.071 234.868C180.071 235.161 179.924 235.366 179.631 235.484C179.69 235.952 179.602 236.362 179.368 236.714C179.192 237.007 179.045 237.359 178.928 237.769C178.87 238.062 178.782 238.384 178.664 238.735C178.606 239.087 178.576 239.439 178.576 239.79C178.693 240.493 178.693 240.933 178.576 241.109C178.517 241.226 178.489 241.372 178.489 241.548C178.43 241.9 178.372 242.456 178.313 243.218C178.254 243.921 178.166 244.712 178.049 245.591C177.991 246.411 177.932 247.202 177.873 247.964C177.815 248.726 177.785 249.194 177.785 249.37C177.785 249.663 177.815 249.898 177.873 250.073C177.932 250.249 177.961 250.454 177.961 250.689C177.961 251.157 177.873 251.626 177.698 252.095C177.581 252.564 177.492 252.974 177.434 253.325C177.551 253.97 177.551 254.38 177.434 254.556C177.375 254.732 177.346 254.937 177.346 255.171C177.288 255.405 177.288 255.64 177.346 255.874C177.405 256.05 177.434 256.255 177.434 256.489C177.434 256.724 177.405 256.958 177.346 257.192C177.346 257.427 177.346 257.661 177.346 257.896C177.288 258.13 177.288 258.335 177.346 258.511C177.405 258.687 177.434 258.862 177.434 259.038C177.434 259.331 177.405 259.595 177.346 259.829C177.346 260.064 177.346 260.298 177.346 260.532C177.229 261.411 177.053 262.29 176.819 263.169C176.584 264.048 176.409 264.927 176.291 265.806C176.233 266.45 176.203 267.241 176.203 268.179C176.262 269.116 176.409 269.907 176.643 270.552C176.35 271.021 176.262 271.519 176.379 272.046C176.497 272.515 176.526 272.984 176.467 273.452C176.35 274.038 176.321 274.39 176.379 274.507C176.438 274.566 176.467 274.653 176.467 274.771C176.291 275.181 176.262 275.444 176.379 275.562C176.497 275.679 176.526 275.855 176.467 276.089C176.233 276.558 176.116 276.88 176.116 277.056C176.174 277.173 176.203 277.29 176.203 277.407C176.086 277.935 175.998 278.462 175.94 278.989C175.881 279.517 175.793 280.015 175.676 280.484C175.5 281.304 175.442 282.095 175.5 282.857C175.559 283.56 175.559 284.292 175.5 285.054C175.442 285.757 175.325 286.519 175.149 287.339C175.032 288.159 175.149 288.892 175.5 289.536C175.149 289.888 175.149 290.386 175.5 291.03C175.676 291.03 175.91 291.001 176.203 290.942C176.555 290.884 176.877 290.825 177.17 290.767C177.522 290.708 177.815 290.679 178.049 290.679C178.342 290.62 178.489 290.62 178.489 290.679C178.957 290.62 179.426 290.62 179.895 290.679C180.422 290.737 180.92 290.855 181.389 291.03C181.682 291.089 181.946 291.206 182.18 291.382C182.473 291.558 182.766 291.587 183.059 291.47C182.941 291.177 182.883 290.884 182.883 290.591C182.883 290.298 182.825 290.005 182.707 289.712C182.825 289.126 182.825 288.54 182.707 287.954C182.59 287.368 182.444 286.782 182.268 286.196C182.092 285.552 181.945 284.937 181.828 284.351C181.711 283.765 181.682 283.208 181.741 282.681C181.741 282.505 181.769 282.329 181.828 282.153C181.887 281.978 181.916 281.802 181.916 281.626C181.682 280.454 181.594 279.546 181.653 278.901C181.711 278.198 181.623 277.525 181.389 276.88C181.74 276.411 181.858 275.767 181.741 274.946C181.623 274.067 181.565 273.306 181.565 272.661C181.565 272.368 181.594 272.105 181.653 271.87C181.711 271.577 181.741 271.284 181.741 270.991C181.682 270.757 181.594 270.552 181.477 270.376C181.36 270.2 181.389 270.025 181.565 269.849C181.506 269.614 181.418 269.38 181.301 269.146C181.243 268.911 181.271 268.706 181.389 268.53C181.33 268.003 181.243 267.476 181.125 266.948C181.008 266.362 181.038 265.806 181.213 265.278C181.155 264.81 181.125 264.37 181.125 263.96C181.184 263.55 181.154 263.169 181.037 262.817C181.037 262.642 180.979 262.495 180.862 262.378C180.803 262.202 180.774 262.026 180.774 261.851C180.891 261.089 180.92 260.62 180.862 260.444C180.803 260.21 180.774 259.976 180.774 259.741C180.774 259.038 180.861 258.247 181.037 257.368C181.213 256.431 181.125 255.64 180.774 254.995C181.067 253.999 181.096 253.091 180.862 252.271C180.627 251.392 180.539 250.484 180.598 249.546C180.598 249.37 180.657 249.165 180.774 248.931C180.891 248.638 180.95 248.403 180.95 248.228C180.891 247.7 180.803 247.349 180.686 247.173C180.627 246.997 180.598 246.88 180.598 246.821C180.773 246.06 180.803 245.591 180.686 245.415C180.627 245.239 180.598 245.034 180.598 244.8C180.539 244.624 180.539 244.448 180.598 244.273C180.656 244.097 180.715 243.892 180.774 243.657C180.774 242.954 180.803 242.163 180.862 241.284C180.92 240.405 180.832 239.614 180.598 238.911C180.832 238.091 180.92 237.271 180.862 236.45C180.862 235.571 180.92 234.722 181.037 233.901L180.422 234.165ZM230.344 229.771C230.871 229.771 231.311 229.8 231.663 229.859C232.014 229.917 232.394 229.888 232.805 229.771C232.922 229.946 233.273 230.151 233.859 230.386C234.445 230.562 235.09 230.767 235.793 231.001C236.496 231.177 237.141 231.411 237.727 231.704C238.313 231.997 238.694 232.319 238.87 232.671C239.866 232.905 240.627 233.169 241.155 233.462C241.682 233.755 242.327 234.048 243.088 234.341C243.381 234.458 243.703 234.546 244.055 234.605C244.406 234.605 244.7 234.692 244.934 234.868C245.696 235.337 246.428 235.864 247.131 236.45C247.834 237.036 248.42 237.417 248.889 237.593C249.182 238.237 249.563 238.735 250.032 239.087C250.559 239.439 250.94 239.761 251.174 240.054C251.233 240.171 251.321 240.405 251.438 240.757C251.555 241.05 251.672 241.255 251.789 241.372C252.141 241.607 252.316 241.812 252.316 241.987C252.316 242.105 252.375 242.222 252.493 242.339C252.961 242.808 253.166 243.13 253.108 243.306C253.049 243.423 253.166 243.482 253.459 243.482C253.577 243.775 253.605 244.038 253.547 244.273C253.547 244.507 253.606 244.741 253.723 244.976C254.075 245.386 254.28 245.737 254.338 246.03C254.397 246.265 254.485 246.528 254.602 246.821C254.719 246.997 254.836 247.144 254.954 247.261C255.129 247.378 255.276 247.554 255.393 247.788C255.51 248.023 255.569 248.257 255.569 248.491C255.569 248.667 255.627 248.872 255.745 249.107C255.803 249.282 255.862 249.458 255.92 249.634C256.038 249.81 256.125 250.015 256.184 250.249C256.301 250.542 256.359 250.835 256.359 251.128C256.359 251.421 256.359 251.714 256.359 252.007C256.301 252.476 256.301 252.769 256.359 252.886C256.418 252.944 256.477 253.032 256.536 253.15C256.711 253.735 256.799 254.175 256.799 254.468C256.858 254.761 256.916 255.112 256.975 255.523C257.034 255.874 257.092 256.226 257.151 256.577C257.268 256.87 257.327 257.046 257.327 257.105C257.678 257.749 257.825 258.071 257.766 258.071C257.707 258.071 257.678 258.13 257.678 258.247C257.795 258.657 257.795 258.98 257.678 259.214C257.62 259.39 257.561 259.624 257.502 259.917C257.502 260.21 257.502 260.474 257.502 260.708C257.561 260.942 257.561 261.206 257.502 261.499C257.444 261.968 257.356 262.437 257.239 262.905C257.18 263.374 257.122 263.843 257.062 264.312C256.946 264.956 256.916 265.601 256.975 266.245C257.034 266.831 257.004 267.446 256.887 268.091C256.829 268.267 256.741 268.442 256.623 268.618C256.565 268.794 256.476 268.999 256.359 269.234C256.242 269.526 256.155 269.878 256.096 270.288C256.038 270.64 256.008 270.991 256.008 271.343C256.067 271.753 256.038 272.105 255.92 272.398C255.862 272.632 255.803 272.896 255.745 273.189C255.627 273.482 255.569 273.775 255.569 274.067C255.627 274.36 255.627 274.653 255.569 274.946C255.51 275.122 255.422 275.298 255.305 275.474C255.247 275.591 255.159 275.737 255.041 275.913C254.924 276.265 254.866 276.646 254.866 277.056C254.866 277.407 254.778 277.73 254.602 278.023C254.485 278.198 254.367 278.345 254.25 278.462C254.192 278.579 254.133 278.726 254.075 278.901C253.84 279.546 253.723 280.191 253.723 280.835C253.782 281.48 253.752 282.124 253.635 282.769C253.518 283.12 253.342 283.472 253.108 283.823C252.873 284.116 252.698 284.439 252.581 284.79C252.405 285.317 252.199 285.845 251.965 286.372C251.73 286.9 251.555 287.456 251.438 288.042C250.969 288.628 250.441 289.185 249.855 289.712C249.269 290.181 248.831 290.767 248.538 291.47C247.893 291.821 247.219 292.173 246.516 292.525C245.813 292.817 245.168 293.228 244.582 293.755C244.231 293.638 243.909 293.667 243.616 293.843C243.381 294.019 243.117 294.165 242.824 294.282C242.473 294.4 242.122 294.517 241.77 294.634C241.477 294.692 241.155 294.78 240.803 294.898C240.159 295.191 239.543 295.484 238.957 295.776C238.372 296.069 237.726 296.275 237.023 296.392C236.555 296.509 236.086 296.567 235.617 296.567C235.207 296.626 234.768 296.743 234.299 296.919C233.655 297.095 233.01 297.271 232.366 297.446C231.721 297.681 231.047 297.827 230.344 297.886C230.168 297.886 229.992 297.857 229.816 297.798C229.699 297.739 229.553 297.71 229.377 297.71C228.733 297.827 228.147 297.827 227.62 297.71C227.151 297.651 226.623 297.564 226.038 297.446C225.452 297.388 224.894 297.3 224.367 297.183C223.898 297.124 223.605 297.066 223.488 297.007C223.019 296.89 222.492 296.685 221.906 296.392C221.32 296.099 220.793 295.982 220.324 296.04C220.266 295.806 220.09 295.63 219.797 295.513C219.562 295.454 219.358 295.366 219.182 295.249C218.655 294.956 218.274 294.722 218.039 294.546C217.864 294.37 217.717 294.224 217.6 294.107C217.307 293.989 216.926 293.755 216.457 293.403C216.223 293.11 216.018 292.935 215.842 292.876C215.725 292.817 215.608 292.73 215.491 292.612C214.963 292.378 214.641 292.202 214.523 292.085C214.465 291.968 214.406 291.88 214.348 291.821C213.879 291.47 213.41 291.148 212.941 290.855C212.531 290.503 212.062 290.269 211.535 290.151C211.301 289.8 211.008 289.507 210.656 289.273C210.305 288.98 209.983 288.687 209.69 288.394C209.397 287.866 209.191 287.632 209.074 287.691C208.957 287.691 208.84 287.632 208.723 287.515C208.488 287.398 208.254 287.163 208.02 286.812C207.786 286.46 207.581 286.167 207.405 285.933C207.17 285.581 206.936 285.23 206.702 284.878C206.526 284.468 206.291 284.116 205.998 283.823C205.764 283.589 205.471 283.355 205.12 283.12C204.827 282.886 204.621 282.681 204.504 282.505C204.035 281.86 203.831 281.45 203.889 281.275C203.948 281.04 203.831 280.894 203.538 280.835C203.479 280.191 203.332 279.575 203.098 278.989C202.863 278.345 202.659 277.7 202.483 277.056C202.366 276.528 202.277 276.001 202.219 275.474C202.219 274.888 202.16 274.331 202.043 273.804C201.984 273.569 201.897 273.364 201.78 273.189C201.663 272.954 201.574 272.72 201.516 272.485C201.516 271.958 201.487 271.665 201.428 271.607C201.37 271.548 201.311 271.46 201.252 271.343C201.194 271.109 201.194 270.874 201.252 270.64C201.311 270.405 201.34 270.142 201.34 269.849C201.398 269.614 201.428 269.292 201.428 268.882C201.487 268.413 201.516 267.944 201.516 267.476C201.574 267.007 201.604 266.567 201.604 266.157C201.663 265.747 201.691 265.454 201.691 265.278L201.34 264.312C201.34 263.726 201.37 263.345 201.428 263.169C201.487 262.993 201.516 262.817 201.516 262.642C201.516 262.525 201.457 262.319 201.34 262.026C201.223 261.675 201.223 261.441 201.34 261.323C201.398 260.913 201.457 260.562 201.516 260.269C201.574 259.976 201.516 259.8 201.34 259.741C201.574 259.214 201.721 258.804 201.78 258.511C201.838 258.218 201.838 257.954 201.78 257.72C201.78 257.427 201.75 257.163 201.691 256.929C201.691 256.636 201.691 256.255 201.691 255.786C201.691 255.669 201.78 255.259 201.956 254.556C202.131 253.853 202.307 253.12 202.483 252.359C202.717 251.538 202.922 250.806 203.098 250.161C203.332 249.458 203.479 249.048 203.538 248.931C203.713 248.579 203.918 248.257 204.152 247.964C204.445 247.612 204.709 247.29 204.944 246.997C205.237 246.528 205.5 246.06 205.734 245.591C206.027 245.122 206.437 244.771 206.965 244.536C206.906 244.36 206.965 244.097 207.141 243.745C207.375 243.335 207.639 242.925 207.932 242.515C208.225 242.105 208.518 241.724 208.811 241.372C209.104 241.021 209.309 240.757 209.426 240.581C209.836 239.937 210.305 239.38 210.832 238.911C211.418 238.384 211.858 237.798 212.151 237.153C212.268 237.153 212.59 236.978 213.117 236.626C213.644 236.275 214.23 235.894 214.875 235.484C215.52 235.015 216.135 234.605 216.721 234.253C217.366 233.843 217.863 233.609 218.215 233.55C218.801 233.081 219.416 232.7 220.061 232.407C220.706 232.114 221.35 231.821 221.995 231.528C222.229 231.411 222.405 231.323 222.522 231.265C222.698 231.148 222.902 231.03 223.137 230.913C223.312 230.855 223.605 230.796 224.016 230.737C224.426 230.62 224.836 230.532 225.246 230.474C225.715 230.357 226.155 230.269 226.565 230.21C226.975 230.151 227.268 230.122 227.444 230.122C227.913 230.122 228.381 230.151 228.85 230.21C229.377 230.21 229.875 230.064 230.344 229.771ZM234.562 233.198C234.269 232.905 234.006 232.759 233.772 232.759C233.538 232.759 233.332 232.73 233.156 232.671C232.922 232.612 232.687 232.554 232.453 232.495C232.277 232.437 232.073 232.407 231.838 232.407C231.487 232.349 231.105 232.349 230.695 232.407C230.344 232.466 230.022 232.525 229.729 232.583C229.377 232.583 228.996 232.554 228.586 232.495C228.234 232.437 227.883 232.466 227.531 232.583C227.297 232.583 226.887 232.7 226.301 232.935C225.715 233.169 225.276 233.316 224.983 233.374C224.221 233.316 223.84 233.403 223.84 233.638C223.898 233.872 223.781 233.96 223.488 233.901C222.785 234.019 222.229 234.253 221.819 234.605C221.409 234.956 220.969 235.366 220.5 235.835C220.324 236.069 220.09 236.275 219.797 236.45C219.562 236.626 219.358 236.86 219.182 237.153C219.123 237.271 219.035 237.476 218.918 237.769C218.859 238.003 218.772 238.267 218.655 238.56C218.538 238.853 218.391 239.116 218.215 239.351C218.098 239.585 218.01 239.673 217.952 239.614C218.069 240.493 217.776 241.138 217.073 241.548C217.131 241.841 217.131 242.222 217.073 242.691C217.014 243.101 216.897 243.54 216.721 244.009C216.604 244.478 216.457 244.917 216.281 245.327C216.105 245.737 215.93 246.06 215.754 246.294C215.93 247.173 215.871 248.052 215.578 248.931C215.344 249.575 215.256 249.985 215.315 250.161C215.432 250.278 215.491 250.425 215.491 250.601C215.491 250.894 215.461 251.187 215.402 251.48C215.402 251.773 215.373 252.066 215.315 252.359C215.198 252.769 215.139 253.179 215.139 253.589C215.198 253.999 215.198 254.409 215.139 254.819C215.081 254.995 215.022 255.171 214.963 255.347C214.905 255.464 214.846 255.61 214.788 255.786C214.67 256.255 214.641 256.753 214.699 257.28C214.758 257.808 214.729 258.306 214.612 258.775C214.553 259.185 214.436 259.566 214.26 259.917C214.143 260.269 214.055 260.65 213.996 261.06C213.879 261.528 213.82 262.026 213.82 262.554C213.879 263.023 213.937 263.491 213.996 263.96C213.996 264.429 213.967 264.898 213.909 265.366C213.85 265.835 213.82 266.304 213.82 266.773C213.82 267.007 213.85 267.241 213.909 267.476C214.026 267.651 214.113 267.857 214.172 268.091C214.289 268.677 214.348 269.116 214.348 269.409C214.348 269.702 214.348 270.054 214.348 270.464C214.406 270.816 214.436 271.167 214.436 271.519C214.436 271.87 214.436 272.075 214.436 272.134C214.436 272.603 214.406 272.954 214.348 273.189C214.348 273.364 214.436 273.687 214.612 274.155C214.436 274.624 214.406 274.946 214.523 275.122C214.641 275.239 214.729 275.444 214.788 275.737C214.553 275.972 214.465 276.177 214.523 276.353C214.582 276.47 214.612 276.646 214.612 276.88C214.553 277.173 214.553 277.378 214.612 277.495C214.729 277.612 214.788 277.759 214.788 277.935C214.67 278.169 214.699 278.55 214.875 279.077C215.051 279.605 215.226 280.191 215.402 280.835C215.637 281.48 215.842 282.095 216.018 282.681C216.252 283.208 216.399 283.53 216.457 283.648C216.575 283.941 216.691 284.175 216.809 284.351C216.984 284.526 217.131 284.761 217.248 285.054C217.307 285.23 217.307 285.405 217.248 285.581C217.248 285.757 217.307 285.933 217.424 286.109C217.717 286.401 217.834 286.607 217.776 286.724C217.717 286.841 217.717 286.958 217.776 287.075C217.834 287.251 217.922 287.456 218.039 287.691C218.157 287.866 218.273 288.042 218.391 288.218C218.918 288.921 219.241 289.478 219.358 289.888C219.475 290.239 219.651 290.562 219.885 290.855L220.676 292.173C221.144 292.7 221.467 292.935 221.643 292.876C221.819 292.817 221.995 292.847 222.17 292.964C222.756 293.491 223.137 293.755 223.312 293.755C223.488 293.755 223.664 293.814 223.84 293.931C224.25 294.165 224.514 294.312 224.631 294.37C224.807 294.429 225.129 294.517 225.598 294.634C226.242 294.634 226.594 294.692 226.652 294.81C226.711 294.868 226.799 294.898 226.916 294.898C227.561 294.839 227.971 294.868 228.147 294.985C228.381 295.044 228.616 295.073 228.85 295.073C229.495 295.132 229.905 295.132 230.081 295.073C230.315 294.956 230.578 294.898 230.871 294.898C231.691 294.956 232.19 294.956 232.366 294.898C232.6 294.78 232.863 294.692 233.156 294.634C233.625 294.458 234.123 294.341 234.651 294.282C235.237 294.165 235.764 293.989 236.233 293.755C236.467 293.638 236.672 293.55 236.848 293.491C237.082 293.374 237.316 293.257 237.551 293.14C237.726 293.198 237.902 293.228 238.078 293.228C238.312 293.228 238.518 293.257 238.694 293.316C238.811 293.081 238.987 292.993 239.221 293.052C239.456 293.052 239.66 293.023 239.836 292.964C239.894 292.964 240.07 292.876 240.363 292.7C240.715 292.525 241.066 292.349 241.418 292.173C241.769 291.997 242.092 291.821 242.385 291.646C242.678 291.47 242.854 291.353 242.913 291.294C243.206 291.118 243.469 291.001 243.703 290.942C243.996 290.884 244.289 290.796 244.582 290.679C244.993 290.444 245.344 290.151 245.637 289.8C245.93 289.448 246.223 289.126 246.516 288.833C246.985 288.482 247.424 288.13 247.834 287.778C248.245 287.427 248.596 287.017 248.889 286.548C249.182 286.079 249.504 285.493 249.855 284.79C250.266 284.087 250.471 283.413 250.471 282.769C250.647 282.651 250.734 282.505 250.734 282.329C250.793 282.153 250.881 281.978 250.998 281.802C251.174 281.392 251.291 281.04 251.35 280.747C251.467 280.396 251.526 280.103 251.526 279.868C251.584 279.575 251.643 279.312 251.702 279.077C251.76 278.784 251.848 278.433 251.965 278.023C252.316 277.378 252.434 277.056 252.316 277.056C252.258 276.997 252.258 276.909 252.316 276.792C252.609 276.148 252.726 275.679 252.668 275.386C252.668 275.034 252.639 274.712 252.581 274.419C252.756 274.243 252.903 273.95 253.02 273.54C253.196 273.071 253.284 272.72 253.284 272.485C253.225 272.192 253.225 271.958 253.284 271.782C253.342 271.607 253.401 271.401 253.459 271.167C253.577 270.523 253.664 269.849 253.723 269.146C253.782 268.384 253.694 267.71 253.459 267.124C253.752 266.831 253.811 266.538 253.635 266.245C253.518 265.952 253.547 265.689 253.723 265.454C253.782 265.396 253.87 264.927 253.987 264.048C254.104 263.169 254.192 262.232 254.25 261.235C254.367 260.181 254.426 259.214 254.426 258.335C254.485 257.456 254.485 256.929 254.426 256.753C254.309 256.519 254.28 256.314 254.338 256.138C254.397 255.903 254.367 255.669 254.25 255.435C254.133 255.2 253.987 254.995 253.811 254.819C253.635 254.644 253.518 254.409 253.459 254.116C253.518 253.648 253.489 253.15 253.372 252.622C253.313 252.095 253.284 251.567 253.284 251.04C253.108 250.923 252.932 250.513 252.756 249.81C252.639 249.107 252.434 248.579 252.141 248.228V247.261C252.024 247.085 251.877 246.909 251.702 246.734C251.526 246.558 251.379 246.353 251.262 246.118L250.998 245.151C250.94 244.976 250.911 244.771 250.911 244.536C250.911 244.302 250.881 244.126 250.823 244.009C250.588 243.599 250.237 243.189 249.768 242.778C249.299 242.368 249.036 241.9 248.977 241.372C248.684 241.255 248.42 241.079 248.186 240.845C248.01 240.552 247.747 240.347 247.395 240.23C246.457 238.999 245.695 238.179 245.109 237.769C244.816 237.593 244.465 237.476 244.055 237.417C243.703 237.359 243.381 237.212 243.088 236.978C242.561 236.509 242.151 236.304 241.858 236.362C241.565 236.362 241.272 236.304 240.979 236.187C240.745 236.069 240.539 235.952 240.363 235.835C240.187 235.718 239.953 235.601 239.66 235.484C239.191 235.308 238.694 235.161 238.166 235.044C237.639 234.927 237.112 234.81 236.584 234.692C236.467 234.224 236.174 233.931 235.706 233.814C235.237 233.638 234.856 233.433 234.562 233.198ZM211.887 242.515C211.184 242.984 210.715 243.423 210.48 243.833C210.246 244.185 210.012 244.536 209.777 244.888C209.543 245.239 209.309 245.562 209.074 245.855C208.898 246.148 208.781 246.353 208.723 246.47C208.254 246.821 207.902 247.202 207.668 247.612C207.492 247.964 207.316 248.286 207.141 248.579C207.023 248.755 206.936 248.96 206.877 249.194C206.819 249.37 206.73 249.546 206.613 249.722C206.496 249.898 206.379 250.073 206.262 250.249C206.144 250.366 206.057 250.513 205.998 250.689C205.881 250.982 205.823 251.275 205.823 251.567C205.881 251.802 205.881 252.066 205.823 252.359C205.706 252.651 205.559 253.003 205.383 253.413C205.207 253.823 205.12 254.116 205.12 254.292C205.237 254.878 205.237 255.259 205.12 255.435C205.061 255.552 205.002 255.669 204.944 255.786C204.885 256.314 204.885 256.87 204.944 257.456C205.002 257.984 204.973 258.511 204.855 259.038C204.621 259.624 204.504 259.917 204.504 259.917C204.562 259.917 204.621 259.976 204.68 260.093C204.504 260.503 204.445 260.767 204.504 260.884C204.621 261.001 204.68 261.118 204.68 261.235C204.68 261.587 204.621 261.939 204.504 262.29C204.387 262.642 204.328 262.993 204.328 263.345C204.328 263.814 204.387 264.282 204.504 264.751C204.621 265.161 204.738 265.601 204.855 266.069C204.738 266.362 204.621 266.685 204.504 267.036C204.387 267.329 204.328 267.622 204.328 267.915C204.562 269.204 204.709 270.376 204.768 271.431C204.827 272.427 204.944 273.335 205.12 274.155C205.178 274.448 205.295 274.859 205.471 275.386C205.706 275.913 205.764 276.323 205.647 276.616C206.057 277.437 206.262 277.905 206.262 278.023C206.262 278.081 206.262 278.14 206.262 278.198C206.262 278.257 206.291 278.345 206.35 278.462C206.409 278.579 206.555 278.814 206.789 279.165C207.024 279.634 207.112 279.927 207.053 280.044C206.995 280.103 206.965 280.191 206.965 280.308C207.141 280.425 207.346 280.601 207.581 280.835C207.815 281.069 208.049 281.333 208.284 281.626C208.577 281.919 208.811 282.241 208.987 282.593C209.163 282.886 209.25 283.12 209.25 283.296C209.543 283.413 209.777 283.618 209.953 283.911C210.129 284.204 210.276 284.497 210.393 284.79C210.686 284.732 210.862 284.819 210.92 285.054C211.038 285.288 211.242 285.405 211.535 285.405C211.945 285.933 212.239 286.284 212.414 286.46C212.59 286.636 212.824 286.724 213.117 286.724C213.234 286.9 213.411 287.134 213.645 287.427C213.879 287.661 214.113 287.661 214.348 287.427C214.055 287.251 213.937 287.017 213.996 286.724C214.055 286.431 214.055 286.167 213.996 285.933C213.644 285.405 213.41 285.025 213.293 284.79C213.234 284.497 213.088 284.204 212.854 283.911C212.913 283.442 212.854 283.12 212.678 282.944C212.502 282.769 212.327 282.505 212.151 282.153C212.268 281.333 212.062 280.718 211.535 280.308C211.301 279.136 211.184 278.14 211.184 277.319C211.242 276.441 211.125 275.708 210.832 275.122C211.125 274.829 211.213 274.566 211.096 274.331C210.979 274.038 210.891 273.745 210.832 273.452C210.832 273.276 210.862 273.13 210.92 273.013C211.038 272.837 211.066 272.661 211.008 272.485C211.066 271.841 211.096 271.431 211.096 271.255C211.096 271.079 211.066 270.845 211.008 270.552C211.008 270.025 210.92 269.526 210.745 269.058C210.627 268.589 210.569 268.091 210.569 267.564C210.569 267.388 210.569 267.241 210.569 267.124C210.627 266.948 210.686 266.773 210.745 266.597C210.745 266.362 210.715 266.157 210.656 265.982C210.598 265.747 210.569 265.513 210.569 265.278C210.569 265.044 210.598 264.81 210.656 264.575C210.715 264.341 210.745 264.077 210.745 263.784C210.686 263.609 210.598 263.433 210.48 263.257C210.363 263.081 210.334 262.876 210.393 262.642C210.569 261.763 210.745 260.913 210.92 260.093C211.096 259.214 211.242 258.335 211.359 257.456C211.476 256.577 211.594 255.581 211.711 254.468C211.828 253.355 212.034 252.388 212.327 251.567C212.385 250.63 212.385 249.81 212.327 249.107C212.268 248.345 212.268 247.73 212.327 247.261C212.385 247.026 212.531 246.528 212.766 245.767C213.059 244.946 213.293 244.478 213.469 244.36C213.469 244.302 213.498 244.126 213.557 243.833C213.616 243.482 213.674 243.13 213.733 242.778C213.85 242.427 213.967 242.105 214.084 241.812C214.202 241.46 214.289 241.255 214.348 241.196C214.758 240.435 214.963 239.937 214.963 239.702C214.963 239.468 215.022 239.204 215.139 238.911C214.084 239.38 213.351 239.907 212.941 240.493C212.531 241.079 212.121 241.607 211.711 242.075L211.887 242.515ZM287.561 291.821C287.913 291.88 288.293 291.939 288.704 291.997C289.172 291.997 289.612 292.056 290.022 292.173C290.491 292.232 290.901 292.349 291.252 292.525C291.663 292.7 291.956 292.964 292.131 293.316C291.897 293.96 291.78 294.312 291.78 294.37C291.78 294.37 291.75 294.487 291.691 294.722C291.398 294.956 291.047 295.103 290.637 295.161C290.227 295.161 289.905 295.308 289.67 295.601C289.202 295.308 288.674 295.161 288.088 295.161C287.502 295.22 286.945 295.191 286.418 295.073C286.008 295.015 285.569 294.927 285.1 294.81C284.631 294.634 284.192 294.663 283.782 294.898C283.489 294.78 283.166 294.663 282.815 294.546C282.522 294.429 282.2 294.4 281.848 294.458C281.672 294.341 281.526 294.224 281.409 294.107C281.291 293.931 281.174 293.755 281.057 293.579C280.823 293.579 280.471 293.609 280.002 293.667C279.592 293.667 279.328 293.579 279.211 293.403C278.976 293.462 278.772 293.55 278.596 293.667C278.479 293.784 278.303 293.872 278.069 293.931C277.424 293.989 277.073 294.048 277.014 294.107C276.956 294.165 276.867 294.224 276.75 294.282C276.282 294.4 275.784 294.458 275.256 294.458C274.788 294.458 274.319 294.517 273.85 294.634C273.557 294.634 273.323 294.692 273.147 294.81C272.971 294.868 272.766 294.898 272.532 294.898C272.239 294.898 271.945 294.868 271.652 294.81C271.418 294.692 271.155 294.634 270.862 294.634C270.51 294.575 270.247 294.605 270.071 294.722C269.895 294.839 269.601 294.81 269.191 294.634C268.723 294.575 268.225 294.575 267.698 294.634C267.229 294.692 266.76 294.692 266.291 294.634C266.174 294.458 266.057 294.282 265.94 294.107C265.823 293.872 265.676 293.696 265.5 293.579C265.735 292.993 266.086 292.583 266.555 292.349C267.024 292.114 267.492 291.968 267.961 291.909C268.488 291.851 268.928 291.851 269.28 291.909C269.69 291.909 269.954 291.821 270.071 291.646C270.539 291.763 271.096 291.851 271.741 291.909C272.444 291.968 272.971 291.763 273.323 291.294C273.264 290.298 273.293 289.36 273.411 288.482C273.586 287.544 273.674 286.577 273.674 285.581C273.616 285.054 273.586 284.526 273.586 283.999C273.644 283.413 273.733 282.857 273.85 282.329C273.967 281.685 274.084 281.099 274.202 280.571C274.377 279.985 274.407 279.37 274.289 278.726C274.231 278.257 274.26 277.759 274.377 277.232C274.495 276.704 274.582 276.177 274.641 275.65C274.758 275.064 274.816 274.507 274.816 273.98C274.816 273.394 274.699 272.837 274.465 272.31C274.816 272.075 274.905 271.724 274.729 271.255C274.553 270.786 274.465 270.376 274.465 270.025C274.465 269.849 274.495 269.702 274.553 269.585C274.612 269.409 274.641 269.234 274.641 269.058C274.641 268.882 274.612 268.735 274.553 268.618C274.495 268.442 274.465 268.267 274.465 268.091C274.699 267.388 274.788 266.978 274.729 266.86C274.67 266.685 274.641 266.538 274.641 266.421C274.641 266.187 274.699 266.011 274.816 265.894C274.992 265.718 275.081 265.513 275.081 265.278C275.139 265.103 275.11 264.956 274.993 264.839C274.934 264.663 274.934 264.487 274.993 264.312C274.993 264.136 275.022 263.989 275.081 263.872C275.139 263.696 275.198 263.521 275.256 263.345C275.373 262.817 275.461 262.349 275.52 261.939C275.579 261.528 275.608 261.177 275.608 260.884C275.608 260.65 275.579 260.444 275.52 260.269C275.461 260.093 275.432 259.917 275.432 259.741C275.491 259.273 275.579 258.804 275.696 258.335C275.813 257.866 275.901 257.398 275.959 256.929C276.077 256.05 276.105 255.171 276.047 254.292C275.988 253.355 276.018 252.446 276.135 251.567C276.135 251.099 276.194 250.63 276.311 250.161C276.487 249.692 276.428 249.224 276.135 248.755C276.487 248.286 276.633 247.73 276.575 247.085C276.516 246.382 276.516 245.737 276.575 245.151C276.633 244.683 276.721 244.243 276.838 243.833C276.956 243.423 277.043 243.042 277.102 242.691C276.985 241.987 277.014 241.577 277.19 241.46C277.366 241.284 277.394 241.05 277.277 240.757C277.512 239.937 277.6 239.409 277.541 239.175C277.483 238.882 277.483 238.589 277.541 238.296C277.541 237.827 277.629 237.388 277.805 236.978C277.981 236.567 278.127 236.187 278.245 235.835C278.127 235.776 277.805 235.864 277.277 236.099C276.75 236.275 276.457 236.392 276.398 236.45C276.164 236.743 275.959 236.89 275.784 236.89C275.666 236.831 275.549 236.86 275.432 236.978C275.139 237.153 274.788 237.388 274.377 237.681C274.026 237.974 273.674 238.12 273.323 238.12C272.854 238.062 272.444 237.827 272.092 237.417C271.799 237.007 271.652 236.597 271.652 236.187C272.297 235.425 273.059 235.044 273.938 235.044C274.524 234.751 275.022 234.429 275.432 234.077C275.901 233.667 276.457 233.374 277.102 233.198C277.278 233.023 277.483 232.759 277.717 232.407C278.245 232.466 278.625 232.349 278.859 232.056C279.152 231.763 279.534 231.587 280.002 231.528C280.295 231.235 280.588 231.03 280.881 230.913C281.233 230.796 281.555 230.62 281.848 230.386C282.141 230.21 282.375 229.976 282.551 229.683C282.727 229.39 283.02 229.243 283.43 229.243C284.075 228.892 284.602 228.921 285.012 229.331C285.422 229.683 285.686 230.034 285.803 230.386C285.862 230.855 285.715 231.411 285.364 232.056C285.071 232.642 284.866 233.198 284.748 233.726C284.748 234.019 284.777 234.312 284.836 234.605C284.894 234.898 284.924 235.191 284.924 235.484C285.041 235.601 285.012 235.835 284.836 236.187C284.719 236.48 284.631 236.685 284.573 236.802C284.573 237.622 284.602 238.208 284.661 238.56C284.719 238.853 284.807 239.146 284.924 239.439C284.69 239.966 284.602 240.405 284.661 240.757C284.719 241.05 284.748 241.255 284.748 241.372C284.866 242.368 284.924 243.335 284.924 244.273C284.924 245.21 284.924 246.148 284.924 247.085C284.924 247.319 284.954 247.554 285.012 247.788C285.129 247.964 285.159 248.169 285.1 248.403C285.1 248.579 285.041 248.755 284.924 248.931C284.866 249.048 284.807 249.194 284.748 249.37C284.748 249.898 284.748 250.454 284.748 251.04C284.807 251.567 284.866 252.066 284.924 252.534C284.983 252.71 285.041 252.886 285.1 253.062C285.217 253.179 285.276 253.325 285.276 253.501C285.334 254.146 285.276 254.761 285.1 255.347C284.924 255.933 284.983 256.519 285.276 257.105C285.1 257.515 284.983 258.013 284.924 258.599C284.866 259.126 284.866 259.683 284.924 260.269C284.983 260.855 285.041 261.441 285.1 262.026C285.217 262.554 285.276 263.052 285.276 263.521C285.276 263.755 285.247 264.019 285.188 264.312C285.129 264.605 285.159 264.868 285.276 265.103C285.51 265.513 285.569 265.864 285.452 266.157C285.393 266.392 285.393 266.655 285.452 266.948C285.452 267.183 285.51 267.622 285.627 268.267C285.745 268.853 285.832 269.497 285.891 270.2C285.95 270.845 285.979 271.46 285.979 272.046C286.038 272.573 285.979 272.896 285.803 273.013C285.862 273.189 285.92 273.599 285.979 274.243C286.038 274.829 286.066 275.474 286.066 276.177C286.066 276.88 286.038 277.525 285.979 278.11C285.92 278.696 285.862 279.019 285.803 279.077C285.92 279.898 286.008 280.718 286.066 281.538C286.184 282.3 286.301 283.091 286.418 283.911C286.418 284.321 286.418 284.614 286.418 284.79C286.418 284.907 286.477 285.112 286.594 285.405C286.653 285.698 286.711 285.962 286.77 286.196C286.887 286.372 286.975 286.607 287.034 286.9C287.209 287.72 287.297 288.54 287.297 289.36C287.355 290.181 287.444 291.001 287.561 291.821ZM281.672 234.165C281.496 234.341 281.379 234.575 281.321 234.868C281.321 235.161 281.174 235.366 280.881 235.484C280.94 235.952 280.852 236.362 280.618 236.714C280.442 237.007 280.295 237.359 280.178 237.769C280.12 238.062 280.032 238.384 279.914 238.735C279.856 239.087 279.827 239.439 279.827 239.79C279.944 240.493 279.944 240.933 279.827 241.109C279.768 241.226 279.739 241.372 279.739 241.548C279.68 241.9 279.622 242.456 279.562 243.218C279.504 243.921 279.416 244.712 279.299 245.591C279.241 246.411 279.182 247.202 279.123 247.964C279.065 248.726 279.036 249.194 279.036 249.37C279.036 249.663 279.065 249.898 279.123 250.073C279.182 250.249 279.211 250.454 279.211 250.689C279.211 251.157 279.123 251.626 278.948 252.095C278.831 252.564 278.743 252.974 278.684 253.325C278.801 253.97 278.801 254.38 278.684 254.556C278.625 254.732 278.596 254.937 278.596 255.171C278.538 255.405 278.538 255.64 278.596 255.874C278.655 256.05 278.684 256.255 278.684 256.489C278.684 256.724 278.655 256.958 278.596 257.192C278.596 257.427 278.596 257.661 278.596 257.896C278.538 258.13 278.538 258.335 278.596 258.511C278.655 258.687 278.684 258.862 278.684 259.038C278.684 259.331 278.655 259.595 278.596 259.829C278.596 260.064 278.596 260.298 278.596 260.532C278.479 261.411 278.303 262.29 278.069 263.169C277.834 264.048 277.659 264.927 277.541 265.806C277.483 266.45 277.454 267.241 277.454 268.179C277.512 269.116 277.659 269.907 277.893 270.552C277.6 271.021 277.512 271.519 277.629 272.046C277.746 272.515 277.776 272.984 277.717 273.452C277.6 274.038 277.57 274.39 277.629 274.507C277.687 274.566 277.717 274.653 277.717 274.771C277.541 275.181 277.512 275.444 277.629 275.562C277.746 275.679 277.776 275.855 277.717 276.089C277.483 276.558 277.366 276.88 277.366 277.056C277.424 277.173 277.454 277.29 277.454 277.407C277.336 277.935 277.248 278.462 277.19 278.989C277.131 279.517 277.043 280.015 276.926 280.484C276.75 281.304 276.692 282.095 276.75 282.857C276.809 283.56 276.809 284.292 276.75 285.054C276.692 285.757 276.574 286.519 276.398 287.339C276.281 288.159 276.398 288.892 276.75 289.536C276.398 289.888 276.398 290.386 276.75 291.03C276.926 291.03 277.161 291.001 277.454 290.942C277.805 290.884 278.127 290.825 278.42 290.767C278.772 290.708 279.065 290.679 279.299 290.679C279.592 290.62 279.739 290.62 279.739 290.679C280.207 290.62 280.676 290.62 281.145 290.679C281.672 290.737 282.17 290.855 282.639 291.03C282.932 291.089 283.196 291.206 283.43 291.382C283.723 291.558 284.016 291.587 284.309 291.47C284.192 291.177 284.133 290.884 284.133 290.591C284.133 290.298 284.075 290.005 283.957 289.712C284.075 289.126 284.075 288.54 283.957 287.954C283.84 287.368 283.694 286.782 283.518 286.196C283.342 285.552 283.196 284.937 283.079 284.351C282.961 283.765 282.932 283.208 282.991 282.681C282.991 282.505 283.02 282.329 283.079 282.153C283.137 281.978 283.166 281.802 283.166 281.626C282.932 280.454 282.844 279.546 282.902 278.901C282.961 278.198 282.873 277.525 282.639 276.88C282.991 276.411 283.108 275.767 282.991 274.946C282.873 274.067 282.815 273.306 282.815 272.661C282.815 272.368 282.844 272.105 282.902 271.87C282.961 271.577 282.991 271.284 282.991 270.991C282.932 270.757 282.844 270.552 282.727 270.376C282.61 270.2 282.639 270.025 282.815 269.849C282.756 269.614 282.668 269.38 282.551 269.146C282.493 268.911 282.522 268.706 282.639 268.53C282.581 268.003 282.492 267.476 282.375 266.948C282.258 266.362 282.288 265.806 282.463 265.278C282.405 264.81 282.375 264.37 282.375 263.96C282.434 263.55 282.405 263.169 282.288 262.817C282.288 262.642 282.229 262.495 282.112 262.378C282.053 262.202 282.023 262.026 282.023 261.851C282.141 261.089 282.17 260.62 282.112 260.444C282.053 260.21 282.023 259.976 282.023 259.741C282.023 259.038 282.112 258.247 282.288 257.368C282.463 256.431 282.375 255.64 282.023 254.995C282.316 253.999 282.346 253.091 282.112 252.271C281.877 251.392 281.789 250.484 281.848 249.546C281.848 249.37 281.906 249.165 282.023 248.931C282.141 248.638 282.2 248.403 282.2 248.228C282.141 247.7 282.053 247.349 281.936 247.173C281.877 246.997 281.848 246.88 281.848 246.821C282.024 246.06 282.053 245.591 281.936 245.415C281.877 245.239 281.848 245.034 281.848 244.8C281.789 244.624 281.789 244.448 281.848 244.273C281.907 244.097 281.965 243.892 282.023 243.657C282.023 242.954 282.053 242.163 282.112 241.284C282.17 240.405 282.082 239.614 281.848 238.911C282.082 238.091 282.17 237.271 282.112 236.45C282.112 235.571 282.17 234.722 282.288 233.901L281.672 234.165ZM331.594 229.771C332.122 229.771 332.561 229.8 332.913 229.859C333.264 229.917 333.645 229.888 334.055 229.771C334.172 229.946 334.523 230.151 335.109 230.386C335.695 230.562 336.34 230.767 337.043 231.001C337.746 231.177 338.391 231.411 338.977 231.704C339.563 231.997 339.944 232.319 340.12 232.671C341.116 232.905 341.877 233.169 342.405 233.462C342.932 233.755 343.577 234.048 344.338 234.341C344.631 234.458 344.954 234.546 345.305 234.605C345.657 234.605 345.95 234.692 346.184 234.868C346.946 235.337 347.678 235.864 348.381 236.45C349.084 237.036 349.67 237.417 350.139 237.593C350.432 238.237 350.813 238.735 351.282 239.087C351.809 239.439 352.19 239.761 352.424 240.054C352.483 240.171 352.571 240.405 352.688 240.757C352.805 241.05 352.922 241.255 353.039 241.372C353.391 241.607 353.566 241.812 353.566 241.987C353.566 242.105 353.625 242.222 353.743 242.339C354.211 242.808 354.416 243.13 354.358 243.306C354.299 243.423 354.416 243.482 354.709 243.482C354.827 243.775 354.855 244.038 354.797 244.273C354.797 244.507 354.856 244.741 354.973 244.976C355.325 245.386 355.53 245.737 355.588 246.03C355.647 246.265 355.735 246.528 355.852 246.821C355.969 246.997 356.086 247.144 356.204 247.261C356.379 247.378 356.526 247.554 356.643 247.788C356.76 248.023 356.819 248.257 356.819 248.491C356.819 248.667 356.877 248.872 356.995 249.107C357.053 249.282 357.112 249.458 357.17 249.634C357.288 249.81 357.375 250.015 357.434 250.249C357.551 250.542 357.609 250.835 357.609 251.128C357.609 251.421 357.609 251.714 357.609 252.007C357.551 252.476 357.551 252.769 357.609 252.886C357.668 252.944 357.727 253.032 357.786 253.15C357.961 253.735 358.049 254.175 358.049 254.468C358.108 254.761 358.166 255.112 358.225 255.523C358.284 255.874 358.342 256.226 358.401 256.577C358.518 256.87 358.577 257.046 358.577 257.105C358.928 257.749 359.075 258.071 359.016 258.071C358.957 258.071 358.928 258.13 358.928 258.247C359.045 258.657 359.045 258.98 358.928 259.214C358.87 259.39 358.811 259.624 358.752 259.917C358.752 260.21 358.752 260.474 358.752 260.708C358.811 260.942 358.811 261.206 358.752 261.499C358.694 261.968 358.606 262.437 358.489 262.905C358.43 263.374 358.372 263.843 358.312 264.312C358.196 264.956 358.166 265.601 358.225 266.245C358.284 266.831 358.254 267.446 358.137 268.091C358.079 268.267 357.991 268.442 357.873 268.618C357.815 268.794 357.726 268.999 357.609 269.234C357.492 269.526 357.405 269.878 357.346 270.288C357.288 270.64 357.258 270.991 357.258 271.343C357.317 271.753 357.288 272.105 357.17 272.398C357.112 272.632 357.053 272.896 356.995 273.189C356.877 273.482 356.819 273.775 356.819 274.067C356.877 274.36 356.877 274.653 356.819 274.946C356.76 275.122 356.672 275.298 356.555 275.474C356.497 275.591 356.409 275.737 356.291 275.913C356.174 276.265 356.116 276.646 356.116 277.056C356.116 277.407 356.028 277.73 355.852 278.023C355.735 278.198 355.617 278.345 355.5 278.462C355.442 278.579 355.383 278.726 355.325 278.901C355.09 279.546 354.973 280.191 354.973 280.835C355.032 281.48 355.002 282.124 354.885 282.769C354.768 283.12 354.592 283.472 354.358 283.823C354.123 284.116 353.948 284.439 353.831 284.79C353.655 285.317 353.449 285.845 353.215 286.372C352.98 286.9 352.805 287.456 352.688 288.042C352.219 288.628 351.691 289.185 351.105 289.712C350.519 290.181 350.081 290.767 349.788 291.47C349.143 291.821 348.469 292.173 347.766 292.525C347.063 292.817 346.418 293.228 345.832 293.755C345.481 293.638 345.159 293.667 344.866 293.843C344.631 294.019 344.368 294.165 344.075 294.282C343.723 294.4 343.372 294.517 343.02 294.634C342.727 294.692 342.405 294.78 342.053 294.898C341.409 295.191 340.793 295.484 340.207 295.776C339.622 296.069 338.976 296.275 338.273 296.392C337.805 296.509 337.336 296.567 336.868 296.567C336.457 296.626 336.018 296.743 335.549 296.919C334.905 297.095 334.26 297.271 333.616 297.446C332.971 297.681 332.297 297.827 331.594 297.886C331.418 297.886 331.242 297.857 331.066 297.798C330.949 297.739 330.803 297.71 330.627 297.71C329.983 297.827 329.397 297.827 328.87 297.71C328.401 297.651 327.873 297.564 327.288 297.446C326.702 297.388 326.145 297.3 325.618 297.183C325.149 297.124 324.856 297.066 324.739 297.007C324.27 296.89 323.743 296.685 323.157 296.392C322.571 296.099 322.043 295.982 321.575 296.04C321.516 295.806 321.34 295.63 321.047 295.513C320.812 295.454 320.608 295.366 320.432 295.249C319.905 294.956 319.524 294.722 319.289 294.546C319.114 294.37 318.967 294.224 318.85 294.107C318.557 293.989 318.176 293.755 317.707 293.403C317.473 293.11 317.268 292.935 317.092 292.876C316.975 292.817 316.858 292.73 316.741 292.612C316.213 292.378 315.891 292.202 315.773 292.085C315.715 291.968 315.657 291.88 315.598 291.821C315.129 291.47 314.66 291.148 314.191 290.855C313.781 290.503 313.313 290.269 312.786 290.151C312.551 289.8 312.258 289.507 311.907 289.273C311.555 288.98 311.233 288.687 310.94 288.394C310.647 287.866 310.442 287.632 310.325 287.691C310.207 287.691 310.09 287.632 309.973 287.515C309.739 287.398 309.504 287.163 309.27 286.812C309.036 286.46 308.831 286.167 308.655 285.933C308.42 285.581 308.186 285.23 307.952 284.878C307.776 284.468 307.541 284.116 307.248 283.823C307.014 283.589 306.721 283.355 306.37 283.12C306.077 282.886 305.871 282.681 305.754 282.505C305.285 281.86 305.081 281.45 305.139 281.275C305.198 281.04 305.081 280.894 304.788 280.835C304.729 280.191 304.582 279.575 304.348 278.989C304.114 278.345 303.909 277.7 303.733 277.056C303.616 276.528 303.528 276.001 303.469 275.474C303.469 274.888 303.41 274.331 303.293 273.804C303.234 273.569 303.147 273.364 303.03 273.189C302.913 272.954 302.825 272.72 302.766 272.485C302.766 271.958 302.737 271.665 302.678 271.607C302.62 271.548 302.561 271.46 302.502 271.343C302.444 271.109 302.444 270.874 302.502 270.64C302.561 270.405 302.59 270.142 302.59 269.849C302.648 269.614 302.678 269.292 302.678 268.882C302.737 268.413 302.766 267.944 302.766 267.476C302.825 267.007 302.854 266.567 302.854 266.157C302.913 265.747 302.941 265.454 302.941 265.278L302.59 264.312C302.59 263.726 302.62 263.345 302.678 263.169C302.737 262.993 302.766 262.817 302.766 262.642C302.766 262.525 302.707 262.319 302.59 262.026C302.473 261.675 302.473 261.441 302.59 261.323C302.648 260.913 302.707 260.562 302.766 260.269C302.825 259.976 302.766 259.8 302.59 259.741C302.824 259.214 302.971 258.804 303.03 258.511C303.088 258.218 303.088 257.954 303.03 257.72C303.03 257.427 303 257.163 302.941 256.929C302.941 256.636 302.941 256.255 302.941 255.786C302.941 255.669 303.03 255.259 303.206 254.556C303.381 253.853 303.557 253.12 303.733 252.359C303.967 251.538 304.172 250.806 304.348 250.161C304.582 249.458 304.729 249.048 304.788 248.931C304.963 248.579 305.168 248.257 305.402 247.964C305.695 247.612 305.959 247.29 306.194 246.997C306.487 246.528 306.75 246.06 306.984 245.591C307.277 245.122 307.687 244.771 308.215 244.536C308.156 244.36 308.215 244.097 308.391 243.745C308.625 243.335 308.889 242.925 309.182 242.515C309.475 242.105 309.768 241.724 310.061 241.372C310.354 241.021 310.559 240.757 310.676 240.581C311.086 239.937 311.555 239.38 312.082 238.911C312.668 238.384 313.108 237.798 313.401 237.153C313.518 237.153 313.84 236.978 314.368 236.626C314.895 236.275 315.48 235.894 316.125 235.484C316.77 235.015 317.385 234.605 317.971 234.253C318.616 233.843 319.113 233.609 319.465 233.55C320.051 233.081 320.666 232.7 321.311 232.407C321.956 232.114 322.6 231.821 323.245 231.528C323.479 231.411 323.655 231.323 323.772 231.265C323.948 231.148 324.153 231.03 324.387 230.913C324.563 230.855 324.856 230.796 325.266 230.737C325.676 230.62 326.086 230.532 326.497 230.474C326.965 230.357 327.405 230.269 327.815 230.21C328.225 230.151 328.518 230.122 328.694 230.122C329.163 230.122 329.631 230.151 330.1 230.21C330.627 230.21 331.125 230.064 331.594 229.771ZM335.812 233.198C335.519 232.905 335.256 232.759 335.022 232.759C334.788 232.759 334.582 232.73 334.407 232.671C334.172 232.612 333.938 232.554 333.704 232.495C333.528 232.437 333.323 232.407 333.088 232.407C332.737 232.349 332.356 232.349 331.946 232.407C331.594 232.466 331.272 232.525 330.979 232.583C330.627 232.583 330.246 232.554 329.836 232.495C329.484 232.437 329.133 232.466 328.782 232.583C328.547 232.583 328.137 232.7 327.551 232.935C326.965 233.169 326.526 233.316 326.233 233.374C325.471 233.316 325.09 233.403 325.09 233.638C325.148 233.872 325.032 233.96 324.739 233.901C324.036 234.019 323.479 234.253 323.069 234.605C322.659 234.956 322.219 235.366 321.75 235.835C321.574 236.069 321.34 236.275 321.047 236.45C320.812 236.626 320.608 236.86 320.432 237.153C320.373 237.271 320.285 237.476 320.168 237.769C320.109 238.003 320.022 238.267 319.905 238.56C319.788 238.853 319.641 239.116 319.465 239.351C319.348 239.585 319.26 239.673 319.202 239.614C319.319 240.493 319.026 241.138 318.323 241.548C318.381 241.841 318.381 242.222 318.323 242.691C318.264 243.101 318.147 243.54 317.971 244.009C317.854 244.478 317.707 244.917 317.532 245.327C317.356 245.737 317.18 246.06 317.004 246.294C317.18 247.173 317.122 248.052 316.829 248.931C316.594 249.575 316.506 249.985 316.565 250.161C316.682 250.278 316.741 250.425 316.741 250.601C316.741 250.894 316.711 251.187 316.652 251.48C316.652 251.773 316.623 252.066 316.565 252.359C316.448 252.769 316.389 253.179 316.389 253.589C316.448 253.999 316.448 254.409 316.389 254.819C316.331 254.995 316.272 255.171 316.213 255.347C316.155 255.464 316.096 255.61 316.038 255.786C315.92 256.255 315.891 256.753 315.95 257.28C316.008 257.808 315.979 258.306 315.862 258.775C315.803 259.185 315.686 259.566 315.51 259.917C315.393 260.269 315.305 260.65 315.247 261.06C315.129 261.528 315.071 262.026 315.071 262.554C315.129 263.023 315.188 263.491 315.247 263.96C315.247 264.429 315.217 264.898 315.159 265.366C315.1 265.835 315.071 266.304 315.071 266.773C315.071 267.007 315.1 267.241 315.159 267.476C315.276 267.651 315.363 267.857 315.422 268.091C315.539 268.677 315.598 269.116 315.598 269.409C315.598 269.702 315.598 270.054 315.598 270.464C315.657 270.816 315.686 271.167 315.686 271.519C315.686 271.87 315.686 272.075 315.686 272.134C315.686 272.603 315.657 272.954 315.598 273.189C315.598 273.364 315.686 273.687 315.862 274.155C315.686 274.624 315.656 274.946 315.773 275.122C315.891 275.239 315.979 275.444 316.038 275.737C315.803 275.972 315.715 276.177 315.773 276.353C315.832 276.47 315.862 276.646 315.862 276.88C315.803 277.173 315.803 277.378 315.862 277.495C315.979 277.612 316.038 277.759 316.038 277.935C315.92 278.169 315.949 278.55 316.125 279.077C316.301 279.605 316.476 280.191 316.652 280.835C316.887 281.48 317.092 282.095 317.268 282.681C317.502 283.208 317.649 283.53 317.707 283.648C317.825 283.941 317.942 284.175 318.059 284.351C318.235 284.526 318.381 284.761 318.498 285.054C318.557 285.23 318.557 285.405 318.498 285.581C318.498 285.757 318.557 285.933 318.674 286.109C318.967 286.401 319.084 286.607 319.026 286.724C318.967 286.841 318.967 286.958 319.026 287.075C319.084 287.251 319.172 287.456 319.289 287.691C319.407 287.866 319.524 288.042 319.641 288.218C320.168 288.921 320.491 289.478 320.608 289.888C320.725 290.239 320.901 290.562 321.135 290.855L321.926 292.173C322.395 292.7 322.717 292.935 322.893 292.876C323.069 292.817 323.245 292.847 323.42 292.964C324.006 293.491 324.387 293.755 324.562 293.755C324.738 293.755 324.914 293.814 325.09 293.931C325.5 294.165 325.764 294.312 325.881 294.37C326.057 294.429 326.379 294.517 326.848 294.634C327.493 294.634 327.844 294.692 327.902 294.81C327.961 294.868 328.049 294.898 328.166 294.898C328.811 294.839 329.221 294.868 329.397 294.985C329.631 295.044 329.866 295.073 330.1 295.073C330.745 295.132 331.155 295.132 331.331 295.073C331.565 294.956 331.829 294.898 332.122 294.898C332.942 294.956 333.44 294.956 333.616 294.898C333.85 294.78 334.114 294.692 334.407 294.634C334.875 294.458 335.373 294.341 335.901 294.282C336.487 294.165 337.014 293.989 337.483 293.755C337.717 293.638 337.922 293.55 338.098 293.491C338.332 293.374 338.567 293.257 338.801 293.14C338.977 293.198 339.153 293.228 339.329 293.228C339.563 293.228 339.768 293.257 339.944 293.316C340.061 293.081 340.237 292.993 340.471 293.052C340.706 293.052 340.91 293.023 341.086 292.964C341.144 292.964 341.321 292.876 341.614 292.7C341.965 292.525 342.316 292.349 342.668 292.173C343.019 291.997 343.342 291.821 343.635 291.646C343.928 291.47 344.104 291.353 344.163 291.294C344.456 291.118 344.719 291.001 344.954 290.942C345.247 290.884 345.539 290.796 345.832 290.679C346.243 290.444 346.594 290.151 346.887 289.8C347.18 289.448 347.473 289.126 347.766 288.833C348.235 288.482 348.674 288.13 349.084 287.778C349.495 287.427 349.846 287.017 350.139 286.548C350.432 286.079 350.754 285.493 351.105 284.79C351.516 284.087 351.721 283.413 351.721 282.769C351.897 282.651 351.984 282.505 351.984 282.329C352.043 282.153 352.131 281.978 352.248 281.802C352.424 281.392 352.541 281.04 352.6 280.747C352.717 280.396 352.776 280.103 352.776 279.868C352.834 279.575 352.893 279.312 352.952 279.077C353.01 278.784 353.098 278.433 353.215 278.023C353.566 277.378 353.684 277.056 353.566 277.056C353.508 276.997 353.508 276.909 353.566 276.792C353.859 276.148 353.976 275.679 353.918 275.386C353.918 275.034 353.889 274.712 353.831 274.419C354.006 274.243 354.153 273.95 354.27 273.54C354.446 273.071 354.534 272.72 354.534 272.485C354.475 272.192 354.475 271.958 354.534 271.782C354.592 271.607 354.651 271.401 354.709 271.167C354.827 270.523 354.914 269.849 354.973 269.146C355.032 268.384 354.944 267.71 354.709 267.124C355.002 266.831 355.061 266.538 354.885 266.245C354.768 265.952 354.797 265.689 354.973 265.454C355.032 265.396 355.12 264.927 355.237 264.048C355.354 263.169 355.442 262.232 355.5 261.235C355.617 260.181 355.676 259.214 355.676 258.335C355.735 257.456 355.735 256.929 355.676 256.753C355.559 256.519 355.53 256.314 355.588 256.138C355.647 255.903 355.617 255.669 355.5 255.435C355.383 255.2 355.237 254.995 355.061 254.819C354.885 254.644 354.768 254.409 354.709 254.116C354.768 253.648 354.739 253.15 354.622 252.622C354.563 252.095 354.534 251.567 354.534 251.04C354.358 250.923 354.182 250.513 354.006 249.81C353.889 249.107 353.684 248.579 353.391 248.228V247.261C353.274 247.085 353.127 246.909 352.952 246.734C352.776 246.558 352.629 246.353 352.512 246.118L352.248 245.151C352.19 244.976 352.161 244.771 352.161 244.536C352.161 244.302 352.131 244.126 352.073 244.009C351.838 243.599 351.487 243.189 351.018 242.778C350.549 242.368 350.286 241.9 350.227 241.372C349.934 241.255 349.67 241.079 349.436 240.845C349.26 240.552 348.997 240.347 348.645 240.23C347.707 238.999 346.945 238.179 346.359 237.769C346.066 237.593 345.715 237.476 345.305 237.417C344.954 237.359 344.631 237.212 344.338 236.978C343.811 236.509 343.401 236.304 343.108 236.362C342.815 236.362 342.522 236.304 342.229 236.187C341.995 236.069 341.789 235.952 341.614 235.835C341.438 235.718 341.204 235.601 340.911 235.484C340.442 235.308 339.944 235.161 339.416 235.044C338.889 234.927 338.362 234.81 337.834 234.692C337.717 234.224 337.424 233.931 336.956 233.814C336.487 233.638 336.106 233.433 335.812 233.198ZM313.137 242.515C312.434 242.984 311.965 243.423 311.73 243.833C311.496 244.185 311.262 244.536 311.027 244.888C310.793 245.239 310.559 245.562 310.325 245.855C310.149 246.148 310.032 246.353 309.973 246.47C309.504 246.821 309.152 247.202 308.918 247.612C308.742 247.964 308.567 248.286 308.391 248.579C308.274 248.755 308.186 248.96 308.127 249.194C308.069 249.37 307.981 249.546 307.864 249.722C307.747 249.898 307.629 250.073 307.512 250.249C307.395 250.366 307.307 250.513 307.248 250.689C307.131 250.982 307.073 251.275 307.073 251.567C307.131 251.802 307.131 252.066 307.073 252.359C306.956 252.651 306.809 253.003 306.633 253.413C306.457 253.823 306.37 254.116 306.37 254.292C306.487 254.878 306.487 255.259 306.37 255.435C306.311 255.552 306.252 255.669 306.194 255.786C306.135 256.314 306.135 256.87 306.194 257.456C306.252 257.984 306.223 258.511 306.105 259.038C305.871 259.624 305.754 259.917 305.754 259.917C305.812 259.917 305.872 259.976 305.93 260.093C305.754 260.503 305.695 260.767 305.754 260.884C305.871 261.001 305.93 261.118 305.93 261.235C305.93 261.587 305.871 261.939 305.754 262.29C305.637 262.642 305.579 262.993 305.579 263.345C305.579 263.814 305.637 264.282 305.754 264.751C305.871 265.161 305.988 265.601 306.105 266.069C305.988 266.362 305.871 266.685 305.754 267.036C305.637 267.329 305.579 267.622 305.579 267.915C305.813 269.204 305.959 270.376 306.018 271.431C306.077 272.427 306.194 273.335 306.37 274.155C306.428 274.448 306.545 274.859 306.721 275.386C306.956 275.913 307.014 276.323 306.897 276.616C307.307 277.437 307.512 277.905 307.512 278.023C307.512 278.081 307.512 278.14 307.512 278.198C307.512 278.257 307.541 278.345 307.6 278.462C307.659 278.579 307.805 278.814 308.039 279.165C308.274 279.634 308.362 279.927 308.303 280.044C308.245 280.103 308.215 280.191 308.215 280.308C308.391 280.425 308.596 280.601 308.831 280.835C309.065 281.069 309.299 281.333 309.534 281.626C309.827 281.919 310.061 282.241 310.237 282.593C310.413 282.886 310.5 283.12 310.5 283.296C310.793 283.413 311.028 283.618 311.204 283.911C311.379 284.204 311.526 284.497 311.643 284.79C311.936 284.732 312.112 284.819 312.17 285.054C312.288 285.288 312.493 285.405 312.786 285.405C313.196 285.933 313.489 286.284 313.664 286.46C313.84 286.636 314.075 286.724 314.368 286.724C314.485 286.9 314.661 287.134 314.895 287.427C315.129 287.661 315.364 287.661 315.598 287.427C315.305 287.251 315.188 287.017 315.247 286.724C315.305 286.431 315.305 286.167 315.247 285.933C314.895 285.405 314.66 285.025 314.543 284.79C314.484 284.497 314.338 284.204 314.104 283.911C314.163 283.442 314.104 283.12 313.928 282.944C313.752 282.769 313.577 282.505 313.401 282.153C313.518 281.333 313.313 280.718 312.786 280.308C312.551 279.136 312.434 278.14 312.434 277.319C312.493 276.441 312.375 275.708 312.082 275.122C312.375 274.829 312.463 274.566 312.346 274.331C312.229 274.038 312.141 273.745 312.082 273.452C312.082 273.276 312.112 273.13 312.17 273.013C312.288 272.837 312.317 272.661 312.258 272.485C312.317 271.841 312.346 271.431 312.346 271.255C312.346 271.079 312.317 270.845 312.258 270.552C312.258 270.025 312.17 269.526 311.995 269.058C311.877 268.589 311.819 268.091 311.819 267.564C311.819 267.388 311.819 267.241 311.819 267.124C311.877 266.948 311.936 266.773 311.995 266.597C311.995 266.362 311.965 266.157 311.907 265.982C311.848 265.747 311.819 265.513 311.819 265.278C311.819 265.044 311.848 264.81 311.907 264.575C311.965 264.341 311.995 264.077 311.995 263.784C311.936 263.609 311.848 263.433 311.73 263.257C311.613 263.081 311.584 262.876 311.643 262.642C311.819 261.763 311.995 260.913 312.17 260.093C312.346 259.214 312.492 258.335 312.609 257.456C312.726 256.577 312.844 255.581 312.961 254.468C313.078 253.355 313.284 252.388 313.577 251.567C313.635 250.63 313.635 249.81 313.577 249.107C313.518 248.345 313.518 247.73 313.577 247.261C313.635 247.026 313.782 246.528 314.016 245.767C314.309 244.946 314.543 244.478 314.719 244.36C314.719 244.302 314.748 244.126 314.807 243.833C314.866 243.482 314.924 243.13 314.983 242.778C315.1 242.427 315.217 242.105 315.334 241.812C315.452 241.46 315.539 241.255 315.598 241.196C316.008 240.435 316.213 239.937 316.213 239.702C316.213 239.468 316.272 239.204 316.389 238.911C315.334 239.38 314.601 239.907 314.191 240.493C313.781 241.079 313.371 241.607 312.961 242.075L313.137 242.515Z" fill="white"/>
<path d="M76.2992 172.916C76.2992 168 75.1732 161.384 77.2899 156.869C79.8543 151.399 82.9842 145.693 86.6397 140.853C90.2271 136.103 95.9995 132.65 100.541 128.925C105.312 125.011 111.767 121.442 117.847 120.471C123.573 119.558 131.094 119.828 136.732 120.779C143.035 121.842 150.418 124.74 154.627 129.755C159.044 135.019 164.113 139.518 167.661 145.464C171.579 152.029 173.118 159.768 176.484 166.583C176.969 167.564 179.952 175.521 179.952 172.916C179.952 167.947 180.444 163.103 178.28 158.498C176.66 155.051 175.796 151.409 174.379 147.893C172.296 142.722 169.108 138.217 165.494 133.967C159.027 126.362 150.259 121.255 140.2 120.471C134.311 120.013 128.511 120.256 122.615 119.549C118.332 119.036 113.745 118.629 109.426 118.688C99.4643 118.826 94.4702 126.361 89.1475 133.629C84.5859 139.857 83.1511 148.164 80.4788 155.24C79.2103 158.598 79.1324 163.07 79.0856 166.645C79.0467 169.617 78.6928 172.853 79.6429 175.683" stroke="black" stroke-width="3" stroke-linecap="round"/>
<path d="M240.487 171.214C240.647 166.301 239.738 159.652 242.001 155.208C244.742 149.825 248.057 144.224 251.868 139.506C255.609 134.876 261.491 131.613 266.151 128.038C271.048 124.282 277.616 120.925 283.725 120.154C289.477 119.428 296.986 119.944 302.59 121.078C308.855 122.346 316.139 125.484 320.182 130.634C324.425 136.039 329.344 140.702 332.696 146.76C336.397 153.449 337.683 161.235 340.825 168.156C341.277 169.152 343.999 177.203 344.084 174.598C344.246 169.632 344.896 164.807 342.884 160.134C341.377 156.635 340.632 152.967 339.331 149.407C337.418 144.171 334.379 139.564 330.905 135.198C324.69 127.386 316.094 121.995 306.065 120.884C300.195 120.233 294.39 120.287 288.52 119.388C284.256 118.735 279.685 118.179 275.366 118.097C265.405 117.909 260.168 125.278 254.611 132.367C249.848 138.443 248.143 146.699 245.241 153.684C243.864 156.999 243.64 161.466 243.476 165.037C243.34 168.007 242.881 171.229 243.738 174.089" stroke="black" stroke-width="3" stroke-linecap="round"/>
</svg>
